<svg xmlns="http://www.w3.org/2000/svg" xmlns:xlink="http://www.w3.org/1999/xlink" xmlns:lucid="lucid" width="1760" height="1360"><g transform="translate(0 0)" lucid:page-tab-id="0_0"><path d="M0 0h1760v1360H0z" fill="#fff"/><a xlink:href="{'id':'1', 'type':'header', 'inputArrows':[], 'outputArrows':['a1','a2','a3','a4'], 'children':['2']}" target="_blank"><path d="M702.27 20.2h666.66v61.2H702.27z" stroke="#ef8d22" stroke-width="2" fill="#ffc374"/><use xlink:href="#a" transform="matrix(1,0,0,1,707.2680439719356,25.189481765878824) translate(105.78395061728389 18.888888888888886)"/><use xlink:href="#b" transform="matrix(1,0,0,1,707.2680439719356,25.189481765878824) translate(144.20370370370364 18.888888888888886)"/><use xlink:href="#c" transform="matrix(1,0,0,1,707.2680439719356,25.189481765878824) translate(228.0555555555555 18.888888888888886)"/><use xlink:href="#d" transform="matrix(1,0,0,1,707.2680439719356,25.189481765878824) translate(289.19135802469134 18.888888888888886)"/><use xlink:href="#e" transform="matrix(1,0,0,1,707.2680439719356,25.189481765878824) translate(320.69753086419746 18.888888888888886)"/><use xlink:href="#f" transform="matrix(1,0,0,1,707.2680439719356,25.189481765878824) translate(389.68518518518516 18.888888888888886)"/><use xlink:href="#g" transform="matrix(1,0,0,1,707.2680439719356,25.189481765878824) translate(457.58641975308643 18.888888888888886)"/><use xlink:href="#h" transform="matrix(1,0,0,1,707.2680439719356,25.189481765878824) translate(472.40123456790127 18.888888888888886)"/><use xlink:href="#i" transform="matrix(1,0,0,1,707.2680439719356,25.189481765878824) translate(233.7962962962963 40.22222222222222)"/><use xlink:href="#j" transform="matrix(1,0,0,1,707.2680439719356,25.189481765878824) translate(267.7592592592593 40.22222222222222)"/><use xlink:href="#k" transform="matrix(1,0,0,1,707.2680439719356,25.189481765878824) translate(282.5740740740741 40.22222222222222)"/><use xlink:href="#l" transform="matrix(1,0,0,1,707.2680439719356,25.189481765878824) translate(335.0925925925926 40.22222222222222)"/><use xlink:href="#m" transform="matrix(1,0,0,1,707.2680439719356,25.189481765878824) translate(342.5 40.22222222222222)"/><use xlink:href="#n" transform="matrix(1,0,0,1,707.2680439719356,25.189481765878824) translate(389.9074074074074 40.22222222222222)"/><path class="lucid-link lucid-hotspot lucid-overlay-hotspot" d="M702.27 20.2h666.66v61.2H702.27z" fill="none"/></a><a xlink:href="{'id':'2', 'parentID':'1', 'type':'body', 'isExpanded':true}" target="_blank"><path d="M702.27 81.46h666.66V206.8H702.27z" stroke="#ef8d22" stroke-width="2" fill="#fff"/><use xlink:href="#o" transform="matrix(1,0,0,1,707.2680439719362,86.45614843254552) translate(0 14.4)"/><use xlink:href="#p" transform="matrix(1,0,0,1,707.2680439719362,86.45614843254552) translate(0 36)"/><use xlink:href="#q" transform="matrix(1,0,0,1,707.2680439719362,86.45614843254552) translate(15 36)"/><use xlink:href="#p" transform="matrix(1,0,0,1,707.2680439719362,86.45614843254552) translate(0 57.6)"/><use xlink:href="#r" transform="matrix(1,0,0,1,707.2680439719362,86.45614843254552) translate(15 57.6)"/><use xlink:href="#s" transform="matrix(1,0,0,1,707.2680439719362,86.45614843254552) translate(35 57.6)"/><use xlink:href="#p" transform="matrix(1,0,0,1,707.2680439719362,86.45614843254552) translate(0 79.20000000000002)"/><use xlink:href="#t" transform="matrix(1,0,0,1,707.2680439719362,86.45614843254552) translate(15 79.20000000000002)"/><use xlink:href="#u" transform="matrix(1,0,0,1,707.2680439719362,86.45614843254552) translate(35 79.20000000000002)"/><path class="lucid-link lucid-hotspot lucid-overlay-hotspot" d="M702.27 81.46h666.66V206.8H702.27z" fill="none"/></a><g transform="matrix(1,0,0,1,707.2680439719362,86.45614843254552)"><a xlink:href="{'type':'text', 'href':'https://www.lucidchart.com'}" target="_blank"><path class="lucid-link lucid-hotspot lucid-overlay-hotspot" fill-opacity="0" d="M35 43.2h96.85v21.6H35z"/></a><a xlink:href="{'type':'text', 'href':'https://www.lucidchart.com'}" target="_blank"><path class="lucid-link lucid-hotspot lucid-overlay-hotspot" fill-opacity="0" d="M131.85 43.2h76.85v21.6h-76.85z"/></a><a xlink:href="{'type':'text', 'href':'https://www.lucidchart.com'}" target="_blank"><path class="lucid-link lucid-hotspot lucid-overlay-hotspot" fill-opacity="0" d="M208.7 43.2h38.95v21.6H208.7z"/></a><a xlink:href="{'type':'text', 'href':'https://www.lucidchart.com'}" target="_blank"><path class="lucid-link lucid-hotspot lucid-overlay-hotspot" fill-opacity="0" d="M35 64.8h189.75v21.6H35z"/></a></g><a xlink:href="{'id':'5', 'parentID':'4', 'inputArrows':['a7','a8'], 'outputArrows':['a22','a23', 'a11','a12','a9','a10']}" target="_blank"><path d="M652.93 530.16h489.34v72.4H652.93z" stroke="#ef8d22" stroke-width="2" fill="#fff"/><use xlink:href="#v" transform="matrix(1,0,0,1,657.9347106386028,535.1629421461703) translate(0 24.299999999999997)"/><use xlink:href="#w" transform="matrix(1,0,0,1,657.9347106386028,535.1629421461703) translate(15 24.299999999999997)"/><use xlink:href="#x" transform="matrix(1,0,0,1,657.9347106386028,535.1629421461703) translate(25.95 24.299999999999997)"/><use xlink:href="#y" transform="matrix(1,0,0,1,657.9347106386028,535.1629421461703) translate(65.8 24.299999999999997)"/><use xlink:href="#z" transform="matrix(1,0,0,1,657.9347106386028,535.1629421461703) translate(0 45.9)"/><use xlink:href="#w" transform="matrix(1,0,0,1,657.9347106386028,535.1629421461703) translate(15 45.9)"/><use xlink:href="#A" transform="matrix(1,0,0,1,657.9347106386028,535.1629421461703) translate(25.95 45.9)"/><use xlink:href="#B" transform="matrix(1,0,0,1,657.9347106386028,535.1629421461703) translate(91.95 45.9)"/><path class="lucid-link lucid-hotspot lucid-overlay-hotspot" d="M652.93 530.16h489.34v72.4H652.93z" fill="none"/></a><a xlink:href="{'id':'c2', 'type':'connector', 'isVisible': false, 'inputArrows':['a3', 'a4'], 'outputArrows':['a5', 'a6']}" target="_blank"><path d="M1204.27 276.8h60v60h-60z" stroke="#ef8d22" stroke-width="2" fill="#fff"/><use xlink:href="#C" transform="matrix(1,0,0,1,1209.268043971936,281.7894817658788) translate(7 28.6)"/><path class="lucid-link lucid-hotspot lucid-overlay-hotspot" d="M1204.27 276.8h60v60h-60z" fill="none"/></a><a xlink:href="{'id':'3', 'type':'infoBlock', 'inputArrows':['a5','a6','a24','a25','a26','a19','a20','a21'], 'outputArrows':[] , 'href':'https://www.epam.com'}" target="_blank"><path d="M1522.27 261.46h220V388.8h-220z" stroke="#ef8d22" stroke-width="2" fill="#ffc374"/><use xlink:href="#D" transform="matrix(1,0,0,1,1527.2680439719356,266.4561484325455) translate(11.518518518518505 14.222222222222223)"/><use xlink:href="#E" transform="matrix(1,0,0,1,1527.2680439719356,266.4561484325455) translate(101.88888888888889 14.222222222222223)"/><use xlink:href="#F" transform="matrix(1,0,0,1,1527.2680439719356,266.4561484325455) translate(26.35802469135801 35.55555555555556)"/><use xlink:href="#G" transform="matrix(1,0,0,1,1527.2680439719356,266.4561484325455) translate(120.48148148148148 35.55555555555556)"/><use xlink:href="#H" transform="matrix(1,0,0,1,1527.2680439719356,266.4561484325455) translate(80.85185185185185 56.88888888888889)"/><use xlink:href="#I" transform="matrix(1,0,0,1,1527.2680439719356,266.4561484325455) translate(105 78.22222222222223)"/><use xlink:href="#i" transform="matrix(1,0,0,1,1527.2680439719356,266.4561484325455) translate(51.03703703703703 96.00000000000001)"/><use xlink:href="#j" transform="matrix(1,0,0,1,1527.2680439719356,266.4561484325455) translate(85 96.00000000000001)"/><use xlink:href="#J" transform="matrix(1,0,0,1,1527.2680439719356,266.4561484325455) translate(99.81481481481481 96.00000000000001)"/><use xlink:href="#K" transform="matrix(1,0,0,1,1527.2680439719356,266.4561484325455) translate(147.85185185185185 96.00000000000001)"/><use xlink:href="#L" transform="matrix(1,0,0,1,1527.2680439719356,266.4561484325455) translate(55.85185185185185 112.00000000000001)"/><path class="lucid-link lucid-hotspot lucid-overlay-hotspot" d="M1522.27 261.46h220V388.8h-220z" fill="none"/></a><a xlink:href="{'id':'c1', 'type':'connector', 'isVisible':false, 'inputArrows':['a2', 'a1'], 'outputArrows':['a7', 'a8']}" target="_blank"><path d="M870.93 276.8h60v60h-60z" stroke="#ef8d22" stroke-width="2" fill="#fff"/><use xlink:href="#M" transform="matrix(1,0,0,1,875.9347106386026,281.7894817658788) translate(11.524999999999999 28.6)"/><path class="lucid-link lucid-hotspot lucid-overlay-hotspot" d="M870.93 276.8h60v60h-60z" fill="none"/></a><a xlink:href="{'id':'6', 'inputArrows':['a11','a12'], 'outputArrows':['a17', 'a18','a13','a14']}" target="_blank"><path d="M958.27 691.8h248v138h-248z" stroke="#ef8d22" stroke-width="2" fill="#fff"/><use xlink:href="#N" transform="matrix(1,0,0,1,963.2680439719365,696.7894817658783) translate(0 14.722222222222209)"/><use xlink:href="#O" transform="matrix(1,0,0,1,963.2680439719365,696.7894817658783) translate(36.49382716049383 14.722222222222209)"/><use xlink:href="#P" transform="matrix(1,0,0,1,963.2680439719365,696.7894817658783) translate(66.12345679012347 14.722222222222209)"/><use xlink:href="#Q" transform="matrix(1,0,0,1,963.2680439719365,696.7894817658783) translate(95.7530864197531 14.722222222222209)"/><use xlink:href="#R" transform="matrix(1,0,0,1,963.2680439719365,696.7894817658783) translate(153.92592592592595 14.722222222222209)"/><use xlink:href="#S" transform="matrix(1,0,0,1,963.2680439719365,696.7894817658783) translate(204.24691358024694 14.722222222222209)"/><use xlink:href="#T" transform="matrix(1,0,0,1,963.2680439719365,696.7894817658783) translate(0 36.05555555555554)"/><use xlink:href="#U" transform="matrix(1,0,0,1,963.2680439719365,696.7894817658783) translate(0 57.38888888888888)"/><use xlink:href="#V" transform="matrix(1,0,0,1,963.2680439719365,696.7894817658783) translate(10.814814814814817 57.38888888888888)"/><use xlink:href="#W" transform="matrix(1,0,0,1,963.2680439719365,696.7894817658783) translate(67.01234567901236 57.38888888888888)"/><use xlink:href="#X" transform="matrix(1,0,0,1,963.2680439719365,696.7894817658783) translate(0 78.72222222222221)"/><use xlink:href="#Y" transform="matrix(1,0,0,1,963.2680439719365,696.7894817658783) translate(10.814814814814817 78.72222222222221)"/><use xlink:href="#Z" transform="matrix(1,0,0,1,963.2680439719365,696.7894817658783) translate(25.629629629629633 78.72222222222221)"/><use xlink:href="#aa" transform="matrix(1,0,0,1,963.2680439719365,696.7894817658783) translate(59.061728395061735 78.72222222222221)"/><use xlink:href="#T" transform="matrix(1,0,0,1,963.2680439719365,696.7894817658783) translate(0 100.05555555555556)"/><use xlink:href="#ab" transform="matrix(1,0,0,1,963.2680439719365,696.7894817658783) translate(0 121.3888888888889)"/><use xlink:href="#P" transform="matrix(1,0,0,1,963.2680439719365,696.7894817658783) translate(18.765432098765434 121.3888888888889)"/><use xlink:href="#ac" transform="matrix(1,0,0,1,963.2680439719365,696.7894817658783) translate(48.39506172839506 121.3888888888889)"/><use xlink:href="#ad" transform="matrix(1,0,0,1,963.2680439719365,696.7894817658783) translate(112.54320987654322 121.3888888888889)"/><use xlink:href="#ae" transform="matrix(1,0,0,1,963.2680439719365,696.7894817658783) translate(152.0493827160494 121.3888888888889)"/><path class="lucid-link lucid-hotspot lucid-overlay-hotspot" d="M958.27 691.8h248v138h-248z" fill="none"/></a><a xlink:href="{'id':'c3', 'type':'connector', 'isVisible':false, 'inputArrows':['a22', 'a23'], 'outputArrows':['a24', 'a25', 'a26']}" target="_blank"><path d="M1306.93 446.8h60v60h-60z" stroke="#ef8d22" stroke-width="2" fill="#fff"/><use xlink:href="#C" transform="matrix(1,0,0,1,1311.9347106386026,451.7894817658788) translate(7 28.6)"/><path class="lucid-link lucid-hotspot lucid-overlay-hotspot" d="M1306.93 446.8h60v60h-60z" fill="none"/></a><a xlink:href="{'id':'7', 'type':'header', 'inputArrows':['a9','a10'], 'outputArrows':['a27','a28'], 'children':['8']}" target="_blank"><path d="M627.14 693.6H865.8V802H627.15z" stroke="#ef8d22" stroke-width="2" fill="#ffc374"/><use xlink:href="#af" transform="matrix(1,0,0,1,632.1414281031717,698.5894817658011) translate(2.1049382716049223 42.388888888888886)"/><use xlink:href="#ag" transform="matrix(1,0,0,1,632.1414281031717,698.5894817658011) translate(38.59876543209875 42.388888888888886)"/><use xlink:href="#e" transform="matrix(1,0,0,1,632.1414281031717,698.5894817658011) translate(70.10493827160492 42.388888888888886)"/><use xlink:href="#ah" transform="matrix(1,0,0,1,632.1414281031717,698.5894817658011) translate(139.0925925925926 42.388888888888886)"/><use xlink:href="#ai" transform="matrix(1,0,0,1,632.1414281031717,698.5894817658011) translate(158.84567901234567 42.388888888888886)"/><use xlink:href="#i" transform="matrix(1,0,0,1,632.1414281031717,698.5894817658011) translate(19.79629629629629 63.72222222222222)"/><use xlink:href="#j" transform="matrix(1,0,0,1,632.1414281031717,698.5894817658011) translate(53.75925925925926 63.72222222222222)"/><use xlink:href="#k" transform="matrix(1,0,0,1,632.1414281031717,698.5894817658011) translate(68.57407407407408 63.72222222222222)"/><use xlink:href="#l" transform="matrix(1,0,0,1,632.1414281031717,698.5894817658011) translate(121.0925925925926 63.72222222222222)"/><use xlink:href="#m" transform="matrix(1,0,0,1,632.1414281031717,698.5894817658011) translate(128.5 63.72222222222222)"/><use xlink:href="#n" transform="matrix(1,0,0,1,632.1414281031717,698.5894817658011) translate(175.9074074074074 63.72222222222222)"/><path class="lucid-link lucid-hotspot lucid-overlay-hotspot" d="M627.14 693.6H865.8V802H627.15z" fill="none"/></a><a xlink:href="{ 'id':'a24'}" target="_blank"><path d="M1618.33 490.8h-252.4v-20.4h252.4z" fill="none"/><path d="M1618.33 480.6h-252.4" stroke="#ef8d22" stroke-width="2" fill="#ef8d22"/><path class="lucid-link lucid-hotspot lucid-overlay-hotspot" d="M1365.93 470.4h252.4v20.4h-252.4zM1365.93 480.6h252.4" fill="none"/></a><a xlink:href="{ 'id':'a25'}" target="_blank"><path d="M1626.62 395.3v84.46h-18.06V395.3z" fill="none"/><path d="M1617.6 395.3v84.46" stroke="#ef8d22" stroke-width="2" fill="#ef8d22"/><path class="lucid-link lucid-hotspot lucid-overlay-hotspot" d="M1575.35 428.5h84.48v18.06h-84.48zM1575.35 437.53h84.48" fill="none"/></a><a xlink:href="{ 'id':'a26'}" target="_blank"><path d="M1603.25 371.15h28.67v55.34h-28.67z" fill="none"/><path d="M1610.22 407.9l7.37-12.23 7.36 12.22 1.5-3.38-8.87-14.78-8.9 14.78 1.52 3.37z" fill="#ef8d22"/><path class="lucid-link lucid-hotspot lucid-overlay-hotspot" d="M1603.25 371.15h28.67v55.34h-28.67z" fill="none"/><path class="lucid-link lucid-hotspot lucid-overlay-hotspot" d="M1610.22 407.9l7.37-12.23 7.36 12.22 1.5-3.38-8.87-14.78-8.9 14.78 1.52 3.37z" fill="none"/></a><a xlink:href="{ 'id':'a11'}" target="_blank"><path d="M1091.43 601.3v90h-17v-90z" fill="none"/><path d="M1082.93 601.3v90" stroke="#ef8d22" stroke-width="2" fill="#ef8d22"/><path class="lucid-link lucid-hotspot lucid-overlay-hotspot" d="M1037.93 637.8h90v17h-90zM1037.93 646.3h90" fill="none"/></a><a xlink:href="{ 'id':'a12'}" target="_blank"><path d="M1072.67 658.2h20v51.34h-20z" fill="none"/><path d="M1087.8 675.46l-5.13 11.34-5.14-11.34-1.06 3.13 6.2 13.7 6.2-13.7-1.06-3.14z" fill="#ef8d22"/><path class="lucid-link lucid-hotspot lucid-overlay-hotspot" d="M1072.67 658.2h20v51.34h-20z" fill="none"/><path class="lucid-link lucid-hotspot lucid-overlay-hotspot" d="M1087.8 675.46l-5.13 11.34-5.14-11.34-1.06 3.13 6.2 13.7 6.2-13.7-1.06-3.14z" fill="none"/></a><a xlink:href="{'id':'a3'}" target="_blank"><path d="M1243.66 207.96v64.47h-18.56v-64.47z" fill="none"/><path d="M1234.38 207.96v64.47" stroke="#ef8d22" stroke-width="2" fill="#ef8d22"/><path class="lucid-link lucid-hotspot lucid-overlay-hotspot" d="M1202.14 230.92h64.48v18.55h-64.48zM1202.14 240.2h64.48" fill="none"/></a><a xlink:href="{'id':'a4'}" target="_blank"><path d="M1224.2 243.03h20v51.34h-20z" fill="none"/><path d="M1239.34 260.28l-5.14 11.35-5.14-11.35-1.06 3.13 6.2 13.72 6.2-13.7-1.06-3.14z" fill="#ef8d22"/><path class="lucid-link lucid-hotspot lucid-overlay-hotspot" d="M1224.2 243.03h20v51.34h-20z" fill="none"/><path class="lucid-link lucid-hotspot lucid-overlay-hotspot" d="M1239.34 260.28l-5.14 11.35-5.14-11.35-1.06 3.13 6.2 13.72 6.2-13.7-1.06-3.14z" fill="none"/></a><a xlink:href="{ 'id':'a5'}" target="_blank"><path d="M1519.77 319.08h-254.4v-22.95h254.4z" fill="none"/><path d="M1519.77 307.6h-254.4" stroke="#ef8d22" stroke-width="2" fill="#ef8d22"/><path class="lucid-link lucid-hotspot lucid-overlay-hotspot" d="M1265.38 296.13h254.4v22.95h-254.4zM1265.38 307.6h254.4" fill="none"/></a><a xlink:href="{ 'id':'a6'}" target="_blank"><path d="M1497.76 297.6h34.95v20h-34.94z" fill="none"/><path d="M1509.2 302.2l8.13 5.4-8.14 5.4 2.26 1.1 9.82-6.5-9.82-6.53-2.27 1.12z" fill="#ef8d22"/><path class="lucid-link lucid-hotspot lucid-overlay-hotspot" d="M1497.76 297.6h34.95v20h-34.94z" fill="none"/><path class="lucid-link lucid-hotspot lucid-overlay-hotspot" d="M1509.2 302.2l8.13 5.4-8.14 5.4 2.26 1.1 9.82-6.5-9.82-6.53-2.27 1.12z" fill="none"/></a><a xlink:href="{ 'id':'a22'}" target="_blank"><path d="M1306.63 488.37h-164.26V468.3h164.26z" fill="none"/><path d="M1306.63 478.34h-164.26" stroke="#ef8d22" stroke-width="2" fill="#ef8d22"/><path class="lucid-link lucid-hotspot lucid-overlay-hotspot" d="M1142.37 468.3h164.26v20.07h-164.26zM1142.37 478.34h164.26" fill="none"/></a><a xlink:href="{ 'id':'a23'}" target="_blank"><path d="M1283.8 468.24h34.95v20h-34.94z" fill="none"/><path d="M1295.24 472.84l8.14 5.4-8.14 5.4 2.27 1.12 9.82-6.52-9.8-6.52-2.28 1.12z" fill="#ef8d22"/><path class="lucid-link lucid-hotspot lucid-overlay-hotspot" d="M1283.8 468.24h34.95v20h-34.94z" fill="none"/><path class="lucid-link lucid-hotspot lucid-overlay-hotspot" d="M1295.24 472.84l8.14 5.4-8.14 5.4 2.27 1.12 9.82-6.52-9.8-6.52-2.28 1.12z" fill="none"/></a><a xlink:href="{'id':'8', 'parentID':'7', 'type':'body', 'isExpanded': true}" target="_blank"><path d="M626.95 801.2h237.8v161.2h-237.8z" stroke="#ef8d22" stroke-width="2" fill="#fff"/><use xlink:href="#aj" transform="matrix(1,0,0,1,631.9513295621082,806.1945588086337) translate(0 14.800000000000006)"/><use xlink:href="#ak" transform="matrix(1,0,0,1,631.9513295621082,806.1945588086337) translate(0 36.400000000000006)"/><use xlink:href="#al" transform="matrix(1,0,0,1,631.9513295621082,806.1945588086337) translate(0 58.00000000000001)"/><use xlink:href="#am" transform="matrix(1,0,0,1,631.9513295621082,806.1945588086337) translate(20 58.00000000000001)"/><use xlink:href="#an" transform="matrix(1,0,0,1,631.9513295621082,806.1945588086337) translate(59.85 58.00000000000001)"/><use xlink:href="#ao" transform="matrix(1,0,0,1,631.9513295621082,806.1945588086337) translate(0 79.60000000000002)"/><use xlink:href="#ap" transform="matrix(1,0,0,1,631.9513295621082,806.1945588086337) translate(20 79.60000000000002)"/><use xlink:href="#an" transform="matrix(1,0,0,1,631.9513295621082,806.1945588086337) translate(86 79.60000000000002)"/><use xlink:href="#aq" transform="matrix(1,0,0,1,631.9513295621082,806.1945588086337) translate(0 101.20000000000002)"/><use xlink:href="#ar" transform="matrix(1,0,0,1,631.9513295621082,806.1945588086337) translate(20 101.20000000000002)"/><use xlink:href="#an" transform="matrix(1,0,0,1,631.9513295621082,806.1945588086337) translate(65.85 101.20000000000002)"/><use xlink:href="#as" transform="matrix(1,0,0,1,631.9513295621082,806.1945588086337) translate(0 122.80000000000001)"/><use xlink:href="#at" transform="matrix(1,0,0,1,631.9513295621082,806.1945588086337) translate(20 122.80000000000001)"/><use xlink:href="#an" transform="matrix(1,0,0,1,631.9513295621082,806.1945588086337) translate(66.9 122.80000000000001)"/><use xlink:href="#au" transform="matrix(1,0,0,1,631.9513295621082,806.1945588086337) translate(0 144.4)"/><path class="lucid-link lucid-hotspot lucid-overlay-hotspot" d="M626.95 801.2h237.8v161.2h-237.8z" fill="none"/></a><a xlink:href="{ 'id':'a9'}" target="_blank"><path d="M754.1 602.62v90h-17v-90z" fill="none"/><path d="M745.6 602.62v90" stroke="#ef8d22" stroke-width="2" fill="#ef8d22"/><path class="lucid-link lucid-hotspot lucid-overlay-hotspot" d="M700.6 639.12h90v17h-90zM700.6 647.62h90" fill="none"/></a><a xlink:href="{ 'id':'a10'}" target="_blank"><path d="M735.34 659.54h20v51.34h-20z" fill="none"/><path d="M750.48 676.8l-5.14 11.34-5.14-11.35-1.06 3.12 6.2 13.7 6.2-13.7-1.06-3.13z" fill="#ef8d22"/><path class="lucid-link lucid-hotspot lucid-overlay-hotspot" d="M735.34 659.54h20v51.34h-20z" fill="none"/><path class="lucid-link lucid-hotspot lucid-overlay-hotspot" d="M750.48 676.8l-5.14 11.34-5.14-11.35-1.06 3.12 6.2 13.7 6.2-13.7-1.06-3.13z" fill="none"/></a><a xlink:href="{'id':'a1'}" target="_blank"><path d="M912.77 207.96v70h-18.34v-70z" fill="none"/><path d="M903.6 207.96v70" stroke="#ef8d22" stroke-width="2" fill="#ef8d22"/><path class="lucid-link lucid-hotspot lucid-overlay-hotspot" d="M868.6 233.8h70v18.32h-70zM868.6 242.96h70" fill="none"/></a><a xlink:href="{'id':'a2'}" target="_blank"><path d="M893.64 243.48h20v51.33h-20z" fill="none"/><path d="M908.78 260.72l-5.14 11.35-5.14-11.35-1.06 3.14 6.2 13.7 6.2-13.7-1.06-3.14z" fill="#ef8d22"/><path class="lucid-link lucid-hotspot lucid-overlay-hotspot" d="M893.64 243.48h20v51.33h-20z" fill="none"/><path class="lucid-link lucid-hotspot lucid-overlay-hotspot" d="M908.78 260.72l-5.14 11.35-5.14-11.35-1.06 3.14 6.2 13.7 6.2-13.7-1.06-3.14z" fill="none"/></a><a xlink:href="{ 'id':'a7'}" target="_blank"><path d="M910.2 336.35v80h-18.5v-80z" fill="none"/><path d="M900.94 336.35v80" stroke="#ef8d22" stroke-width="2" fill="#ef8d22"/><path class="lucid-link lucid-hotspot lucid-overlay-hotspot" d="M860.95 367.1h80v18.5h-80zM860.95 376.34h80" fill="none"/></a><a xlink:href="{'id':'a8'}" target="_blank"><path d="M890.74 386.77h20v51.33h-20z" fill="none"/><path d="M905.88 404l-5.14 11.36L895.6 404l-1.06 3.14 6.2 13.7 6.2-13.7-1.06-3.13z" fill="#ef8d22"/><path class="lucid-link lucid-hotspot lucid-overlay-hotspot" d="M890.74 386.77h20v51.33h-20z" fill="none"/><path class="lucid-link lucid-hotspot lucid-overlay-hotspot" d="M905.88 404l-5.14 11.36L895.6 404l-1.06 3.14 6.2 13.7 6.2-13.7-1.06-3.13z" fill="none"/></a><a xlink:href="{'id':'c4', 'type':'connector', 'isVisible':false, 'inputArrows':['a17','a18'], 'outputArrows':['a19','a20','a21']}" target="_blank"><path d="M1369.6 729.46h60v60h-60z" stroke="#ef8d22" stroke-width="2" fill="#fff"/><use xlink:href="#C" transform="matrix(1,0,0,1,1374.6013773052691,734.4561484325444) translate(7 28.6)"/><path class="lucid-link lucid-hotspot lucid-overlay-hotspot" d="M1369.6 729.46h60v60h-60z" fill="none"/></a><a xlink:href="{ 'id':'a17'}" target="_blank"><path d="M1369.3 771.04h-164.27v-20.07h164.27z" fill="none"/><path d="M1369.3 761h-164.27" stroke="#ef8d22" stroke-width="2" fill="#ef8d22"/><path class="lucid-link lucid-hotspot lucid-overlay-hotspot" d="M1205.03 750.97h164.27v20.07h-164.27zM1205.03 761h164.27" fill="none"/></a><a xlink:href="{ 'id':'a18'}" target="_blank"><path d="M1346.48 750.9h34.94v20h-34.94z" fill="none"/><path d="M1357.9 755.5l8.14 5.4-8.14 5.4 2.27 1.12 9.82-6.52-9.83-6.52-2.27 1.12z" fill="#ef8d22"/><path class="lucid-link lucid-hotspot lucid-overlay-hotspot" d="M1346.48 750.9h34.94v20h-34.94z" fill="none"/><path class="lucid-link lucid-hotspot lucid-overlay-hotspot" d="M1357.9 755.5l8.14 5.4-8.14 5.4 2.27 1.12 9.82-6.52-9.83-6.52-2.27 1.12z" fill="none"/></a><a xlink:href="{ 'id':'a19'}" target="_blank"><path d="M1669.5 770.8h-239.6v-21h239.6z" fill="none"/><path d="M1669.5 760.3h-239.6" stroke="#ef8d22" stroke-width="2" fill="#ef8d22"/><path class="lucid-link lucid-hotspot lucid-overlay-hotspot" d="M1429.9 749.8h239.6v21h-239.6zM1429.9 760.3h239.6" fill="none"/></a><a xlink:href="{ 'id':'a20'}" target="_blank"><path d="M1675.96 394.76v366.3h-14.86v-366.3z" fill="none"/><path d="M1668.53 394.76v366.3" stroke="#ef8d22" stroke-width="2" fill="#ef8d22"/><path class="lucid-link lucid-hotspot lucid-overlay-hotspot" d="M1485.38 570.48h366.3v14.86h-366.3zM1485.38 577.9h366.3" fill="none"/></a><a xlink:href="{ 'id':'a21'}" target="_blank"><path d="M1654.17 370.95h28.67v55.33h-28.67z" fill="none"/><path d="M1661.13 407.7l7.37-12.24 7.37 12.23 1.52-3.38-8.9-14.78-8.88 14.78 1.5 3.37z" fill="#ef8d22"/><path class="lucid-link lucid-hotspot lucid-overlay-hotspot" d="M1654.17 370.95h28.67v55.33h-28.67z" fill="none"/><path class="lucid-link lucid-hotspot lucid-overlay-hotspot" d="M1661.13 407.7l7.37-12.24 7.37 12.23 1.52-3.38-8.9-14.78-8.88 14.78 1.5 3.37z" fill="none"/></a><a xlink:href="{'id':'c5', 'type':'connector', 'isVisible':false, 'inputArrows':['a14','a13'], 'outputArrows':['a15','a16']}" target="_blank"><path d="M1048.27 899.46h60v60h-60z" stroke="#ef8d22" stroke-width="2" fill="#fff"/><use xlink:href="#M" transform="matrix(1,0,0,1,1053.2680439719352,904.456148432542) translate(11.524999999999999 28.6)"/><path class="lucid-link lucid-hotspot lucid-overlay-hotspot" d="M1048.27 899.46h60v60h-60z" fill="none"/></a><a xlink:href="{'id':'a13'}" target="_blank"><path d="M1090.1 830.62v70h-18.33v-70z" fill="none"/><path d="M1080.93 830.62v70" stroke="#ef8d22" stroke-width="2" fill="#ef8d22"/><path class="lucid-link lucid-hotspot lucid-overlay-hotspot" d="M1045.93 856.46h70v18.33h-70zM1045.93 865.62h70" fill="none"/></a><a xlink:href="{ 'id':'a14'}" target="_blank"><path d="M1070.98 866.14h20v51.34h-20z" fill="none"/><path d="M1086.12 883.4l-5.14 11.34-5.14-11.35-1.06 3.12 6.2 13.7 6.2-13.7-1.06-3.13z" fill="#ef8d22"/><path class="lucid-link lucid-hotspot lucid-overlay-hotspot" d="M1070.98 866.14h20v51.34h-20z" fill="none"/><path class="lucid-link lucid-hotspot lucid-overlay-hotspot" d="M1086.12 883.4l-5.14 11.34-5.14-11.35-1.06 3.12 6.2 13.7 6.2-13.7-1.06-3.13z" fill="none"/></a><a xlink:href="{'id':'9', 'type':'infoBlock', 'inputArrows':['a16','a15'], 'outputArrows':[] , 'href':'https://www.epam.com'}" target="_blank"><path d="M986.27 1046.8h190.66v132.66H986.27z" stroke="#ef8d22" stroke-width="2" fill="#ffc374"/><use xlink:href="#av" transform="matrix(1,0,0,1,991.2680439719389,1051.7894817658746) translate(47.78395061728395 14.222222222222223)"/><use xlink:href="#aw" transform="matrix(1,0,0,1,991.2680439719389,1051.7894817658746) translate(43.68518518518518 35.55555555555556)"/><use xlink:href="#ax" transform="matrix(1,0,0,1,991.2680439719389,1051.7894817658746) translate(17.512345679012327 56.88888888888889)"/><use xlink:href="#ay" transform="matrix(1,0,0,1,991.2680439719389,1051.7894817658746) translate(102.35185185185185 56.88888888888889)"/><use xlink:href="#az" transform="matrix(1,0,0,1,991.2680439719389,1051.7894817658746) translate(90.5 78.22222222222223)"/><use xlink:href="#i" transform="matrix(1,0,0,1,991.2680439719389,1051.7894817658746) translate(36.53703703703703 96.00000000000001)"/><use xlink:href="#j" transform="matrix(1,0,0,1,991.2680439719389,1051.7894817658746) translate(70.5 96.00000000000001)"/><use xlink:href="#J" transform="matrix(1,0,0,1,991.2680439719389,1051.7894817658746) translate(85.31481481481481 96.00000000000001)"/><use xlink:href="#K" transform="matrix(1,0,0,1,991.2680439719389,1051.7894817658746) translate(133.35185185185185 96.00000000000001)"/><use xlink:href="#aA" transform="matrix(1,0,0,1,991.2680439719389,1051.7894817658746) translate(41.35185185185185 115.55555555555557)"/><path class="lucid-link lucid-hotspot lucid-overlay-hotspot" d="M986.27 1046.8h190.66v132.66H986.27z" fill="none"/></a><a xlink:href="{ 'id':'a15'}" target="_blank"><path d="M1091.25 959.46v82.1h-19.48v-82.1z" fill="none"/><path d="M1081.5 959.46v82.1" stroke="#ef8d22" stroke-width="2" fill="#ef8d22"/><path class="lucid-link lucid-hotspot lucid-overlay-hotspot" d="M1040.46 990.77h82.1v19.48h-82.1zM1040.46 1000.5h82.1" fill="none"/></a><a xlink:href="{ 'id':'a16'}" target="_blank"><path d="M1071.5 1010.74h20v51.34h-20z" fill="none"/><path d="M1086.65 1028l-5.14 11.34-5.13-11.35-1.06 3.12 6.2 13.7 6.2-13.7-1.05-3.13z" fill="#ef8d22"/><path class="lucid-link lucid-hotspot lucid-overlay-hotspot" d="M1071.5 1010.74h20v51.34h-20z" fill="none"/><path class="lucid-link lucid-hotspot lucid-overlay-hotspot" d="M1086.65 1028l-5.14 11.34-5.13-11.35-1.06 3.12 6.2 13.7 6.2-13.7-1.05-3.13z" fill="none"/></a><a xlink:href="{'id':'10', 'type':'header', 'inputArrows':['a27','a28'], 'outputArrows':[], 'children':['11']}" target="_blank"><path d="M626.4 1007.08h238.66v54.05H626.4z" stroke="#ef8d22" stroke-width="2" fill="#ffc374"/><use xlink:href="#aB" transform="matrix(1,0,0,1,631.3896635281774,1012.0787236121499) translate(51.43827160493827 15.388888888888888)"/><use xlink:href="#i" transform="matrix(1,0,0,1,631.3896635281774,1012.0787236121499) translate(19.79629629629629 36.72222222222222)"/><use xlink:href="#j" transform="matrix(1,0,0,1,631.3896635281774,1012.0787236121499) translate(53.75925925925926 36.72222222222222)"/><use xlink:href="#k" transform="matrix(1,0,0,1,631.3896635281774,1012.0787236121499) translate(68.57407407407408 36.72222222222222)"/><use xlink:href="#l" transform="matrix(1,0,0,1,631.3896635281774,1012.0787236121499) translate(121.0925925925926 36.72222222222222)"/><use xlink:href="#m" transform="matrix(1,0,0,1,631.3896635281774,1012.0787236121499) translate(128.5 36.72222222222222)"/><use xlink:href="#n" transform="matrix(1,0,0,1,631.3896635281774,1012.0787236121499) translate(175.9074074074074 36.72222222222222)"/><path class="lucid-link lucid-hotspot lucid-overlay-hotspot" d="M626.4 1007.08h238.66v54.05H626.4z" fill="none"/></a><a xlink:href="{'id':'11', 'parentID':'10', 'type':'body', 'isExpanded': true}" target="_blank"><path d="M626.2 1060.26H865v137.63H626.2z" stroke="#ef8d22" stroke-width="2" fill="#fff"/><use xlink:href="#aC" transform="matrix(1,0,0,1,631.1995649871138,1065.263969133572) translate(0 14.4)"/><use xlink:href="#aD" transform="matrix(1,0,0,1,631.1995649871138,1065.263969133572) translate(42.95 14.4)"/><use xlink:href="#aE" transform="matrix(1,0,0,1,631.1995649871138,1065.263969133572) translate(57.95 14.4)"/><use xlink:href="#ak" transform="matrix(1,0,0,1,631.1995649871138,1065.263969133572) translate(0 36)"/><use xlink:href="#al" transform="matrix(1,0,0,1,631.1995649871138,1065.263969133572) translate(0 57.6)"/><use xlink:href="#am" transform="matrix(1,0,0,1,631.1995649871138,1065.263969133572) translate(20 57.6)"/><use xlink:href="#an" transform="matrix(1,0,0,1,631.1995649871138,1065.263969133572) translate(59.85 57.6)"/><use xlink:href="#ao" transform="matrix(1,0,0,1,631.1995649871138,1065.263969133572) translate(0 79.20000000000002)"/><use xlink:href="#ap" transform="matrix(1,0,0,1,631.1995649871138,1065.263969133572) translate(20 79.20000000000002)"/><use xlink:href="#an" transform="matrix(1,0,0,1,631.1995649871138,1065.263969133572) translate(86 79.20000000000002)"/><use xlink:href="#aq" transform="matrix(1,0,0,1,631.1995649871138,1065.263969133572) translate(0 100.80000000000001)"/><use xlink:href="#ar" transform="matrix(1,0,0,1,631.1995649871138,1065.263969133572) translate(20 100.80000000000001)"/><use xlink:href="#an" transform="matrix(1,0,0,1,631.1995649871138,1065.263969133572) translate(65.85 100.80000000000001)"/><use xlink:href="#as" transform="matrix(1,0,0,1,631.1995649871138,1065.263969133572) translate(0 122.4)"/><use xlink:href="#at" transform="matrix(1,0,0,1,631.1995649871138,1065.263969133572) translate(20 122.4)"/><use xlink:href="#aF" transform="matrix(1,0,0,1,631.1995649871138,1065.263969133572) translate(66.9 122.4)"/><path class="lucid-link lucid-hotspot lucid-overlay-hotspot" d="M626.2 1060.26H865v137.63H626.2z" fill="none"/></a><a xlink:href="{ 'id':'a27'}" target="_blank"><path d="M754.34 963.54v43.56h-18v-43.56z" fill="none"/><path d="M745.34 963.54v43.56" stroke="#ef8d22" stroke-width="2" fill="#ef8d22"/><path class="lucid-link lucid-hotspot lucid-overlay-hotspot" d="M723.57 976.33h43.55v18h-43.55zM723.57 985.32h43.55" fill="none"/></a><a xlink:href="{ 'id':'a28'}" target="_blank"><path d="M735.57 974.02h20v51.33h-20z" fill="none"/><path d="M750.7 991.27l-5.13 11.34-5.14-11.33-1.06 3.13 6.2 13.7 6.2-13.7-1.06-3.13z" fill="#ef8d22"/><path class="lucid-link lucid-hotspot lucid-overlay-hotspot" d="M735.57 974.02h20v51.33h-20z" fill="none"/><path class="lucid-link lucid-hotspot lucid-overlay-hotspot" d="M750.7 991.27l-5.13 11.34-5.14-11.33-1.06 3.13 6.2 13.7 6.2-13.7-1.06-3.13z" fill="none"/></a><a xlink:href="{'id':'4', 'inputArrows':['a7','a8'], 'outputArrows':['a22','a23','a11','a12','a9','a10'],'children':['5']}" target="_blank"><path d="M652.93 421.26h489.34v108.4H652.93z" stroke="#ef8d22" stroke-width="2" fill="#c7e8ac"/><use xlink:href="#aG" transform="matrix(1,0,0,1,657.9347106386024,426.25614843254556) translate(68.41975308641975 31.72222222222222)"/><use xlink:href="#aH" transform="matrix(1,0,0,1,657.9347106386024,426.25614843254556) translate(154.2469135802469 31.72222222222222)"/><use xlink:href="#aI" transform="matrix(1,0,0,1,657.9347106386024,426.25614843254556) translate(215.38271604938274 31.72222222222222)"/><use xlink:href="#aJ" transform="matrix(1,0,0,1,657.9347106386024,426.25614843254556) translate(302.1975308641976 31.72222222222222)"/><use xlink:href="#aK" transform="matrix(1,0,0,1,657.9347106386024,426.25614843254556) translate(323.82716049382714 31.72222222222222)"/><use xlink:href="#aL" transform="matrix(1,0,0,1,657.9347106386024,426.25614843254556) translate(338.641975308642 31.72222222222222)"/><use xlink:href="#aM" transform="matrix(1,0,0,1,657.9347106386024,426.25614843254556) translate(136.02469135802468 53.05555555555556)"/><use xlink:href="#ag" transform="matrix(1,0,0,1,657.9347106386024,426.25614843254556) translate(155.77777777777777 53.05555555555556)"/><use xlink:href="#e" transform="matrix(1,0,0,1,657.9347106386024,426.25614843254556) translate(187.28395061728395 53.05555555555556)"/><use xlink:href="#aN" transform="matrix(1,0,0,1,657.9347106386024,426.25614843254556) translate(256.2716049382716 53.05555555555556)"/><use xlink:href="#aO" transform="matrix(1,0,0,1,657.9347106386024,426.25614843254556) translate(240 74.3888888888889)"/><path class="lucid-link lucid-hotspot lucid-overlay-hotspot" d="M652.93 421.26h489.34v108.4H652.93z" fill="none"/></a><defs><path d="M67-125c0 53 21 87 73 88 37 1 54-22 65-47l45 17C233-25 199 4 140 4 58 4 20-42 15-125 8-235 124-281 211-232c18 10 29 29 36 50l-46 12c-8-25-30-41-62-41-52 0-71 34-72 86" id="aP"/><path d="M133-34C117-15 103 5 69 4 32 3 11-16 11-54c-1-60 55-63 116-61 1-26-3-47-28-47-18 1-26 9-28 27l-52-2c7-38 36-58 82-57s74 22 75 68l1 82c-1 14 12 18 25 15v27c-30 8-71 5-69-32zm-48 3c29 0 43-24 42-57-32 0-66-3-65 30 0 17 8 27 23 27" id="aQ"/><path d="M135-194c87-1 58 113 63 194h-50c-7-57 23-157-34-157-59 0-34 97-39 157H25l-1-190h47c2 12-1 28 3 38 12-26 28-41 61-42" id="aR"/><g id="a"><use transform="matrix(0.04938271604938272,0,0,0.04938271604938272,0,0)" xlink:href="#aP"/><use transform="matrix(0.04938271604938272,0,0,0.04938271604938272,12.790123456790125,0)" xlink:href="#aQ"/><use transform="matrix(0.04938271604938272,0,0,0.04938271604938272,22.66666666666667,0)" xlink:href="#aR"/></g><path d="M185-48c-13 30-37 53-82 52C43 2 14-33 14-96s30-98 90-98c62 0 83 45 84 108H66c0 31 8 55 39 56 18 0 30-7 34-22zm-45-69c5-46-57-63-70-21-2 6-4 13-4 21h74" id="aS"/><path d="M220-157c-53 9-28 100-34 157h-49v-107c1-27-5-49-29-50C55-147 81-57 75 0H25l-1-190h47c2 12-1 28 3 38 10-53 101-56 108 0 13-22 24-43 59-42 82 1 51 116 57 194h-49v-107c-1-25-5-48-29-50" id="aT"/><path d="M135-194c53 0 70 44 70 98 0 56-19 98-73 100-31 1-45-17-59-34 3 33 2 69 2 105H25l-1-265h48c2 10 0 23 3 31 11-24 29-35 60-35zM114-30c33 0 39-31 40-66 0-38-9-64-40-64-56 0-55 130 0 130" id="aU"/><path d="M25 0v-261h50V0H25" id="aV"/><path d="M110-194c64 0 96 36 96 99 0 64-35 99-97 99-61 0-95-36-95-99 0-62 34-99 96-99zm-1 164c35 0 45-28 45-65 0-40-10-65-43-65-34 0-45 26-45 65 0 36 10 65 43 65" id="aW"/><path d="M123 10C108 53 80 86 19 72V37c35 8 53-11 59-39L3-190h52l48 148c12-52 28-100 44-148h51" id="aX"/><path d="M135-150c-39-12-60 13-60 57V0H25l-1-190h47c2 13-1 29 3 40 6-28 27-53 61-41v41" id="aY"/><g id="b"><use transform="matrix(0.04938271604938272,0,0,0.04938271604938272,0,0)" xlink:href="#aS"/><use transform="matrix(0.04938271604938272,0,0,0.04938271604938272,9.876543209876544,0)" xlink:href="#aT"/><use transform="matrix(0.04938271604938272,0,0,0.04938271604938272,25.679012345679016,0)" xlink:href="#aU"/><use transform="matrix(0.04938271604938272,0,0,0.04938271604938272,36.49382716049383,0)" xlink:href="#aV"/><use transform="matrix(0.04938271604938272,0,0,0.04938271604938272,41.4320987654321,0)" xlink:href="#aW"/><use transform="matrix(0.04938271604938272,0,0,0.04938271604938272,52.24691358024692,0)" xlink:href="#aX"/><use transform="matrix(0.04938271604938272,0,0,0.04938271604938272,62.12345679012346,0)" xlink:href="#aS"/><use transform="matrix(0.04938271604938272,0,0,0.04938271604938272,72,0)" xlink:href="#aY"/></g><path d="M190-63c-7 42-38 67-86 67-59 0-84-38-90-98-12-110 154-137 174-36l-49 2c-2-19-15-32-35-32-30 0-35 28-38 64-6 74 65 87 74 30" id="aZ"/><path d="M115-3C79 11 28 4 28-45v-112H4v-33h27l15-45h31v45h36v33H77v99c-1 23 16 31 38 25v30" id="ba"/><g id="c"><use transform="matrix(0.04938271604938272,0,0,0.04938271604938272,0,0)" xlink:href="#aQ"/><use transform="matrix(0.04938271604938272,0,0,0.04938271604938272,9.876543209876544,0)" xlink:href="#aZ"/><use transform="matrix(0.04938271604938272,0,0,0.04938271604938272,19.75308641975309,0)" xlink:href="#aZ"/><use transform="matrix(0.04938271604938272,0,0,0.04938271604938272,29.629629629629633,0)" xlink:href="#aS"/><use transform="matrix(0.04938271604938272,0,0,0.04938271604938272,39.50617283950618,0)" xlink:href="#aU"/><use transform="matrix(0.04938271604938272,0,0,0.04938271604938272,50.320987654320994,0)" xlink:href="#ba"/></g><path d="M114-157C55-157 80-60 75 0H25v-261h50l-1 109c12-26 28-41 61-42 86-1 58 113 63 194h-50c-7-57 23-157-34-157" id="bb"/><g id="d"><use transform="matrix(0.04938271604938272,0,0,0.04938271604938272,0,0)" xlink:href="#ba"/><use transform="matrix(0.04938271604938272,0,0,0.04938271604938272,5.8765432098765435,0)" xlink:href="#bb"/><use transform="matrix(0.04938271604938272,0,0,0.04938271604938272,16.691358024691358,0)" xlink:href="#aS"/></g><path d="M84 4C32 4 15-41 15-95c0-55 18-99 73-99 29 0 47 12 58 34l2-30h48l-1 265h-49V-32C136-9 114 4 84 4zm21-34c32 0 41-29 41-66 0-36-9-64-40-64-33 0-39 30-40 65 0 43 13 65 39 65" id="bc"/><path d="M85 4C-2 5 27-109 22-190h50c7 57-23 150 33 157 60-5 35-97 40-157h50l1 190h-47c-2-12 1-28-3-38-12 25-28 42-61 42" id="bd"/><path d="M137-138c1-29-70-34-71-4 15 46 118 7 119 86 1 83-164 76-172 9l43-7c4 19 20 25 44 25 33 8 57-30 24-41C81-84 22-81 20-136c-2-80 154-74 161-7" id="be"/><g id="e"><use transform="matrix(0.04938271604938272,0,0,0.04938271604938272,0,0)" xlink:href="#aY"/><use transform="matrix(0.04938271604938272,0,0,0.04938271604938272,6.913580246913581,0)" xlink:href="#aS"/><use transform="matrix(0.04938271604938272,0,0,0.04938271604938272,16.790123456790127,0)" xlink:href="#bc"/><use transform="matrix(0.04938271604938272,0,0,0.04938271604938272,27.604938271604947,0)" xlink:href="#bd"/><use transform="matrix(0.04938271604938272,0,0,0.04938271604938272,38.41975308641976,0)" xlink:href="#aS"/><use transform="matrix(0.04938271604938272,0,0,0.04938271604938272,48.296296296296305,0)" xlink:href="#be"/><use transform="matrix(0.04938271604938272,0,0,0.04938271604938272,58.17283950617284,0)" xlink:href="#ba"/></g><path d="M231 0h-52l-39-155L100 0H48L-1-190h46L77-45c9-52 24-97 36-145h53l37 145 32-145h46" id="bf"/><path d="M25-224v-37h50v37H25zM25 0v-190h50V0H25" id="bg"/><g id="f"><use transform="matrix(0.04938271604938272,0,0,0.04938271604938272,0,0)" xlink:href="#bf"/><use transform="matrix(0.04938271604938272,0,0,0.04938271604938272,13.827160493827162,0)" xlink:href="#bg"/><use transform="matrix(0.04938271604938272,0,0,0.04938271604938272,18.765432098765434,0)" xlink:href="#ba"/><use transform="matrix(0.04938271604938272,0,0,0.04938271604938272,24.641975308641978,0)" xlink:href="#bb"/><use transform="matrix(0.04938271604938272,0,0,0.04938271604938272,35.45679012345679,0)" xlink:href="#aW"/><use transform="matrix(0.04938271604938272,0,0,0.04938271604938272,46.27160493827161,0)" xlink:href="#bd"/><use transform="matrix(0.04938271604938272,0,0,0.04938271604938272,57.086419753086425,0)" xlink:href="#ba"/></g><use transform="matrix(0.04938271604938272,0,0,0.04938271604938272,0,0)" xlink:href="#aQ" id="g"/><path d="M195-6C206 82 75 100 31 46c-4-6-6-13-8-21l49-6c3 16 16 24 34 25 40 0 42-37 40-79-11 22-30 35-61 35-53 0-70-43-70-97 0-56 18-96 73-97 30 0 46 14 59 34l2-30h47zm-90-29c32 0 41-27 41-63 0-35-9-62-40-62-32 0-39 29-40 63 0 36 9 62 39 62" id="bh"/><path d="M110-251c83-7 118 89 53 130-17 10-36 21-38 46H78c2-56 65-53 71-103 2-21-15-35-38-34-25 1-41 14-44 38l-50-2c6-48 39-70 93-75zM77 0v-47h51V0H77" id="bi"/><g id="h"><use transform="matrix(0.04938271604938272,0,0,0.04938271604938272,0,0)" xlink:href="#aT"/><use transform="matrix(0.04938271604938272,0,0,0.04938271604938272,15.80246913580247,0)" xlink:href="#aS"/><use transform="matrix(0.04938271604938272,0,0,0.04938271604938272,25.679012345679016,0)" xlink:href="#aS"/><use transform="matrix(0.04938271604938272,0,0,0.04938271604938272,35.55555555555556,0)" xlink:href="#ba"/><use transform="matrix(0.04938271604938272,0,0,0.04938271604938272,41.4320987654321,0)" xlink:href="#bg"/><use transform="matrix(0.04938271604938272,0,0,0.04938271604938272,46.370370370370374,0)" xlink:href="#aR"/><use transform="matrix(0.04938271604938272,0,0,0.04938271604938272,57.18518518518519,0)" xlink:href="#bh"/><use transform="matrix(0.04938271604938272,0,0,0.04938271604938272,68,0)" xlink:href="#bi"/></g><path d="M87 75C49 33 22-17 22-94c0-76 28-126 65-167h31c-38 41-64 92-64 168S80 34 118 75H87" id="bj"/><path d="M96-169c-40 0-48 33-48 73s9 75 48 75c24 0 41-14 43-38l32 2c-6 37-31 61-74 61-59 0-76-41-82-99-10-93 101-131 147-64 4 7 5 14 7 22l-32 3c-4-21-16-35-41-35" id="bk"/><path d="M24 0v-261h32V0H24" id="bl"/><path d="M24-231v-30h32v30H24zM24 0v-190h32V0H24" id="bm"/><path d="M143 0L79-87 56-68V0H24v-261h32v163l83-92h37l-77 82L181 0h-38" id="bn"/><g id="i"><use transform="matrix(0.03703703703703704,0,0,0.03703703703703704,0,0)" xlink:href="#bj"/><use transform="matrix(0.03703703703703704,0,0,0.03703703703703704,4.407407407407408,0)" xlink:href="#bk"/><use transform="matrix(0.03703703703703704,0,0,0.03703703703703704,11.074074074074076,0)" xlink:href="#bl"/><use transform="matrix(0.03703703703703704,0,0,0.03703703703703704,14.000000000000004,0)" xlink:href="#bm"/><use transform="matrix(0.03703703703703704,0,0,0.03703703703703704,16.92592592592593,0)" xlink:href="#bk"/><use transform="matrix(0.03703703703703704,0,0,0.03703703703703704,23.5925925925926,0)" xlink:href="#bn"/></g><path d="M59-47c-2 24 18 29 38 22v24C64 9 27 4 27-40v-127H5v-23h24l9-43h21v43h35v23H59v120" id="bo"/><path d="M100-194c62-1 85 37 85 99 1 63-27 99-86 99S16-35 15-95c0-66 28-99 85-99zM99-20c44 1 53-31 53-75 0-43-8-75-51-75s-53 32-53 75 10 74 51 75" id="bp"/><g id="j"><use transform="matrix(0.03703703703703704,0,0,0.03703703703703704,0,0)" xlink:href="#bo"/><use transform="matrix(0.03703703703703704,0,0,0.03703703703703704,3.703703703703704,0)" xlink:href="#bp"/></g><path d="M141-36C126-15 110 5 73 4 37 3 15-17 15-53c-1-64 63-63 125-63 3-35-9-54-41-54-24 1-41 7-42 31l-33-3c5-37 33-52 76-52 45 0 72 20 72 64v82c-1 20 7 32 28 27v20c-31 9-61-2-59-35zM48-53c0 20 12 33 32 33 41-3 63-29 60-74-43 2-92-5-92 41" id="bq"/><path d="M115-194c55 1 70 41 70 98S169 2 115 4C84 4 66-9 55-30l1 105H24l-1-265h31l2 30c10-21 28-34 59-34zm-8 174c40 0 45-34 45-75s-6-73-45-74c-42 0-51 32-51 76 0 43 10 73 51 73" id="br"/><path d="M135-143c-3-34-86-38-87 0 15 53 115 12 119 90S17 21 10-45l28-5c4 36 97 45 98 0-10-56-113-15-118-90-4-57 82-63 122-42 12 7 21 19 24 35" id="bs"/><path d="M100-194c63 0 86 42 84 106H49c0 40 14 67 53 68 26 1 43-12 49-29l28 8c-11 28-37 45-77 45C44 4 14-33 15-96c1-61 26-98 85-98zm52 81c6-60-76-77-97-28-3 7-6 17-6 28h103" id="bt"/><g id="k"><use transform="matrix(0.03703703703703704,0,0,0.03703703703703704,0,0)" xlink:href="#bk"/><use transform="matrix(0.03703703703703704,0,0,0.03703703703703704,6.666666666666668,0)" xlink:href="#bp"/><use transform="matrix(0.03703703703703704,0,0,0.03703703703703704,14.074074074074076,0)" xlink:href="#bl"/><use transform="matrix(0.03703703703703704,0,0,0.03703703703703704,17.000000000000004,0)" xlink:href="#bl"/><use transform="matrix(0.03703703703703704,0,0,0.03703703703703704,19.925925925925934,0)" xlink:href="#bq"/><use transform="matrix(0.03703703703703704,0,0,0.03703703703703704,27.333333333333343,0)" xlink:href="#br"/><use transform="matrix(0.03703703703703704,0,0,0.03703703703703704,34.74074074074075,0)" xlink:href="#bs"/><use transform="matrix(0.03703703703703704,0,0,0.03703703703703704,41.40740740740742,0)" xlink:href="#bt"/></g><path d="M0 4l72-265h28L28 4H0" id="bu"/><use transform="matrix(0.03703703703703704,0,0,0.03703703703703704,0,0)" xlink:href="#bu" id="l"/><path d="M141 0L90-78 38 0H4l68-98-65-92h35l48 74 47-74h35l-64 92 68 98h-35" id="bv"/><path d="M117-194c89-4 53 116 60 194h-32v-121c0-31-8-49-39-48C34-167 62-67 57 0H25l-1-190h30c1 10-1 24 2 32 11-22 29-35 61-36" id="bw"/><path d="M85-194c31 0 48 13 60 33l-1-100h32l1 261h-30c-2-10 0-23-3-31C134-8 116 4 85 4 32 4 16-35 15-94c0-66 23-100 70-100zm9 24c-40 0-46 34-46 75 0 40 6 74 45 74 42 0 51-32 51-76 0-42-9-74-50-73" id="bx"/><g id="m"><use transform="matrix(0.03703703703703704,0,0,0.03703703703703704,0,0)" xlink:href="#bt"/><use transform="matrix(0.03703703703703704,0,0,0.03703703703703704,7.407407407407408,0)" xlink:href="#bv"/><use transform="matrix(0.03703703703703704,0,0,0.03703703703703704,14.074074074074076,0)" xlink:href="#br"/><use transform="matrix(0.03703703703703704,0,0,0.03703703703703704,21.481481481481485,0)" xlink:href="#bq"/><use transform="matrix(0.03703703703703704,0,0,0.03703703703703704,28.888888888888893,0)" xlink:href="#bw"/><use transform="matrix(0.03703703703703704,0,0,0.03703703703703704,36.296296296296305,0)" xlink:href="#bx"/></g><path d="M115-194c53 0 69 39 70 98 0 66-23 100-70 100C84 3 66-7 56-30L54 0H23l1-261h32v101c10-23 28-34 59-34zm-8 174c40 0 45-34 45-75 0-40-5-75-45-74-42 0-51 32-51 76 0 43 10 73 51 73" id="by"/><path d="M179-190L93 31C79 59 56 82 12 73V49c39 6 53-20 64-50L1-190h34L92-34l54-156h33" id="bz"/><path d="M33-261c38 41 65 92 65 168S71 34 33 75H2C39 34 66-17 66-93S39-220 2-261h31" id="bA"/><g id="n"><use transform="matrix(0.03703703703703704,0,0,0.03703703703703704,0,0)" xlink:href="#by"/><use transform="matrix(0.03703703703703704,0,0,0.03703703703703704,7.407407407407408,0)" xlink:href="#bp"/><use transform="matrix(0.03703703703703704,0,0,0.03703703703703704,14.814814814814817,0)" xlink:href="#bx"/><use transform="matrix(0.03703703703703704,0,0,0.03703703703703704,22.222222222222225,0)" xlink:href="#bz"/><use transform="matrix(0.03703703703703704,0,0,0.03703703703703704,28.888888888888893,0)" xlink:href="#bA"/></g><path fill="#ef8d22" d="M30-248c118-7 216 8 213 122C240-48 200 0 122 0H30v-248zM63-27c89 8 146-16 146-99s-60-101-146-95v194" id="bB"/><path fill="#ef8d22" d="M100-194c63 0 86 42 84 106H49c0 40 14 67 53 68 26 1 43-12 49-29l28 8c-11 28-37 45-77 45C44 4 14-33 15-96c1-61 26-98 85-98zm52 81c6-60-76-77-97-28-3 7-6 17-6 28h103" id="bC"/><path fill="#ef8d22" d="M135-143c-3-34-86-38-87 0 15 53 115 12 119 90S17 21 10-45l28-5c4 36 97 45 98 0-10-56-113-15-118-90-4-57 82-63 122-42 12 7 21 19 24 35" id="bD"/><path fill="#ef8d22" d="M96-169c-40 0-48 33-48 73s9 75 48 75c24 0 41-14 43-38l32 2c-6 37-31 61-74 61-59 0-76-41-82-99-10-93 101-131 147-64 4 7 5 14 7 22l-32 3c-4-21-16-35-41-35" id="bE"/><path fill="#ef8d22" d="M114-163C36-179 61-72 57 0H25l-1-190h30c1 12-1 29 2 39 6-27 23-49 58-41v29" id="bF"/><path fill="#ef8d22" d="M24-231v-30h32v30H24zM24 0v-190h32V0H24" id="bG"/><path fill="#ef8d22" d="M115-194c55 1 70 41 70 98S169 2 115 4C84 4 66-9 55-30l1 105H24l-1-265h31l2 30c10-21 28-34 59-34zm-8 174c40 0 45-34 45-75s-6-73-45-74c-42 0-51 32-51 76 0 43 10 73 51 73" id="bH"/><path fill="#ef8d22" d="M59-47c-2 24 18 29 38 22v24C64 9 27 4 27-40v-127H5v-23h24l9-43h21v43h35v23H59v120" id="bI"/><path fill="#ef8d22" d="M100-194c62-1 85 37 85 99 1 63-27 99-86 99S16-35 15-95c0-66 28-99 85-99zM99-20c44 1 53-31 53-75 0-43-8-75-51-75s-53 32-53 75 10 74 51 75" id="bJ"/><path fill="#ef8d22" d="M117-194c89-4 53 116 60 194h-32v-121c0-31-8-49-39-48C34-167 62-67 57 0H25l-1-190h30c1 10-1 24 2 32 11-22 29-35 61-36" id="bK"/><path fill="#ef8d22" d="M33-154v-36h34v36H33zM33 0v-36h34V0H33" id="bL"/><g id="q"><use transform="matrix(0.05,0,0,0.05,0,0)" xlink:href="#bB"/><use transform="matrix(0.05,0,0,0.05,12.950000000000001,0)" xlink:href="#bC"/><use transform="matrix(0.05,0,0,0.05,22.950000000000003,0)" xlink:href="#bD"/><use transform="matrix(0.05,0,0,0.05,31.950000000000003,0)" xlink:href="#bE"/><use transform="matrix(0.05,0,0,0.05,40.95,0)" xlink:href="#bF"/><use transform="matrix(0.05,0,0,0.05,46.900000000000006,0)" xlink:href="#bG"/><use transform="matrix(0.05,0,0,0.05,50.85000000000001,0)" xlink:href="#bH"/><use transform="matrix(0.05,0,0,0.05,60.85,0)" xlink:href="#bI"/><use transform="matrix(0.05,0,0,0.05,65.85000000000001,0)" xlink:href="#bG"/><use transform="matrix(0.05,0,0,0.05,69.80000000000001,0)" xlink:href="#bJ"/><use transform="matrix(0.05,0,0,0.05,79.80000000000001,0)" xlink:href="#bK"/><use transform="matrix(0.05,0,0,0.05,89.80000000000001,0)" xlink:href="#bL"/></g><path fill="#ef8d22" d="M27 0v-27h64v-190l-56 39v-29l58-41h29v221h61V0H27" id="bM"/><path fill="#ef8d22" d="M33 0v-38h34V0H33" id="bN"/><g id="r"><use transform="matrix(0.05,0,0,0.05,0,0)" xlink:href="#bM"/><use transform="matrix(0.05,0,0,0.05,10,0)" xlink:href="#bN"/></g><path fill="#ef8d22" d="M106-169C34-169 62-67 57 0H25v-261h32l-1 103c12-21 28-36 61-36 89 0 53 116 60 194h-32v-121c2-32-8-49-39-48" id="bO"/><path fill="#ef8d22" d="M0 4l72-265h28L28 4H0" id="bP"/><path fill="#ef8d22" d="M206 0h-36l-40-164L89 0H53L-1-190h32L70-26l43-164h34l41 164 42-164h31" id="bQ"/><path fill="#ef8d22" d="M24 0v-261h32V0H24" id="bR"/><path fill="#ef8d22" d="M84 4C-5 8 30-112 23-190h32v120c0 31 7 50 39 49 72-2 45-101 50-169h31l1 190h-30c-1-10 1-25-2-33-11 22-28 36-60 37" id="bS"/><path fill="#ef8d22" d="M85-194c31 0 48 13 60 33l-1-100h32l1 261h-30c-2-10 0-23-3-31C134-8 116 4 85 4 32 4 16-35 15-94c0-66 23-100 70-100zm9 24c-40 0-46 34-46 75 0 40 6 74 45 74 42 0 51-32 51-76 0-42-9-74-50-73" id="bT"/><path fill="#ef8d22" d="M141-36C126-15 110 5 73 4 37 3 15-17 15-53c-1-64 63-63 125-63 3-35-9-54-41-54-24 1-41 7-42 31l-33-3c5-37 33-52 76-52 45 0 72 20 72 64v82c-1 20 7 32 28 27v20c-31 9-61-2-59-35zM48-53c0 20 12 33 32 33 41-3 63-29 60-74-43 2-92-5-92 41" id="bU"/><path fill="#ef8d22" d="M210-169c-67 3-38 105-44 169h-31v-121c0-29-5-50-35-48C34-165 62-65 56 0H25l-1-190h30c1 10-1 24 2 32 10-44 99-50 107 0 11-21 27-35 58-36 85-2 47 119 55 194h-31v-121c0-29-5-49-35-48" id="bV"/><g id="s"><use transform="matrix(0.05,0,0,0.05,0,0)" xlink:href="#bO"/><use transform="matrix(0.05,0,0,0.05,10,0)" xlink:href="#bI"/><use transform="matrix(0.05,0,0,0.05,15,0)" xlink:href="#bI"/><use transform="matrix(0.05,0,0,0.05,20,0)" xlink:href="#bH"/><use transform="matrix(0.05,0,0,0.05,30,0)" xlink:href="#bD"/><use transform="matrix(0.05,0,0,0.05,39,0)" xlink:href="#bL"/><use transform="matrix(0.05,0,0,0.05,44,0)" xlink:href="#bP"/><use transform="matrix(0.05,0,0,0.05,49,0)" xlink:href="#bP"/><use transform="matrix(0.05,0,0,0.05,54,0)" xlink:href="#bQ"/><use transform="matrix(0.05,0,0,0.05,66.95,0)" xlink:href="#bQ"/><use transform="matrix(0.05,0,0,0.05,79.9,0)" xlink:href="#bQ"/><use transform="matrix(0.05,0,0,0.05,91.85000000000001,0)" xlink:href="#bN"/><path fill="#ef8d22" d="M-.9 1.25h98.65v1.32H-.9z"/><path fill="#8080ff" d="M-.9 1.25h98.65v1.32H-.9z"/><use transform="matrix(0.05,0,0,0.05,96.85000000000001,0)" xlink:href="#bR"/><use transform="matrix(0.05,0,0,0.05,100.80000000000001,0)" xlink:href="#bS"/><use transform="matrix(0.05,0,0,0.05,110.80000000000001,0)" xlink:href="#bE"/><use transform="matrix(0.05,0,0,0.05,119.80000000000001,0)" xlink:href="#bG"/><use transform="matrix(0.05,0,0,0.05,123.75,0)" xlink:href="#bT"/><use transform="matrix(0.05,0,0,0.05,133.75,0)" xlink:href="#bE"/><use transform="matrix(0.05,0,0,0.05,142.75,0)" xlink:href="#bO"/><use transform="matrix(0.05,0,0,0.05,152.75,0)" xlink:href="#bU"/><use transform="matrix(0.05,0,0,0.05,162.75,0)" xlink:href="#bF"/><use transform="matrix(0.05,0,0,0.05,168.7,0)" xlink:href="#bI"/><path fill="#ef8d22" d="M95.95 1.25h78.65v1.32H95.95z"/><path fill="#8080ff" d="M95.95 1.25h78.65v1.32H95.95z"/><use transform="matrix(0.05,0,0,0.05,173.7,0)" xlink:href="#bN"/><use transform="matrix(0.05,0,0,0.05,178.7,0)" xlink:href="#bE"/><use transform="matrix(0.05,0,0,0.05,187.7,0)" xlink:href="#bJ"/><use transform="matrix(0.05,0,0,0.05,197.7,0)" xlink:href="#bV"/><path fill="#ef8d22" d="M172.8 1.25h40.75v1.32H172.8z"/><path fill="#8080ff" d="M172.8 1.25h40.75v1.32H172.8z"/></g><path fill="#ef8d22" d="M101-251c82-7 93 87 43 132L82-64C71-53 59-42 53-27h129V0H18c2-99 128-94 128-182 0-28-16-43-45-43s-46 15-49 41l-32-3c6-41 34-60 81-64" id="bW"/><g id="t"><use transform="matrix(0.05,0,0,0.05,0,0)" xlink:href="#bW"/><use transform="matrix(0.05,0,0,0.05,10,0)" xlink:href="#bN"/></g><path fill="#ef8d22" d="M177-190C167-65 218 103 67 71c-23-6-38-20-44-43l32-5c15 47 100 32 89-28v-30C133-14 115 1 83 1 29 1 15-40 15-95c0-56 16-97 71-98 29-1 48 16 59 35 1-10 0-23 2-32h30zM94-22c36 0 50-32 50-73 0-42-14-75-50-75-39 0-46 34-46 75s6 73 46 73" id="bX"/><g id="u"><use transform="matrix(0.05,0,0,0.05,0,0)" xlink:href="#bO"/><use transform="matrix(0.05,0,0,0.05,10,0)" xlink:href="#bI"/><use transform="matrix(0.05,0,0,0.05,15,0)" xlink:href="#bI"/><use transform="matrix(0.05,0,0,0.05,20,0)" xlink:href="#bH"/><use transform="matrix(0.05,0,0,0.05,30,0)" xlink:href="#bD"/><use transform="matrix(0.05,0,0,0.05,39,0)" xlink:href="#bL"/><use transform="matrix(0.05,0,0,0.05,44,0)" xlink:href="#bP"/><use transform="matrix(0.05,0,0,0.05,49,0)" xlink:href="#bP"/><use transform="matrix(0.05,0,0,0.05,54,0)" xlink:href="#bQ"/><use transform="matrix(0.05,0,0,0.05,66.95,0)" xlink:href="#bQ"/><use transform="matrix(0.05,0,0,0.05,79.9,0)" xlink:href="#bQ"/><use transform="matrix(0.05,0,0,0.05,91.85000000000001,0)" xlink:href="#bN"/><use transform="matrix(0.05,0,0,0.05,96.85000000000001,0)" xlink:href="#bX"/><use transform="matrix(0.05,0,0,0.05,106.85000000000001,0)" xlink:href="#bJ"/><use transform="matrix(0.05,0,0,0.05,116.85000000000001,0)" xlink:href="#bJ"/><use transform="matrix(0.05,0,0,0.05,126.85000000000001,0)" xlink:href="#bX"/><use transform="matrix(0.05,0,0,0.05,136.85000000000002,0)" xlink:href="#bR"/><use transform="matrix(0.05,0,0,0.05,140.8,0)" xlink:href="#bC"/><use transform="matrix(0.05,0,0,0.05,150.8,0)" xlink:href="#bN"/><use transform="matrix(0.05,0,0,0.05,155.8,0)" xlink:href="#bE"/><use transform="matrix(0.05,0,0,0.05,164.8,0)" xlink:href="#bJ"/><use transform="matrix(0.05,0,0,0.05,174.8,0)" xlink:href="#bV"/><path fill="#ef8d22" d="M-.9 1.25h191.55v1.32H-.9z"/><path fill="#8080ff" d="M-.9 1.25h191.55v1.32H-.9z"/></g><path fill="#7ab648" d="M16-82v-28h88v28H16" id="bY"/><use transform="matrix(0.05,0,0,0.05,0,0)" xlink:href="#bY" id="w"/><path fill="#7ab648" d="M63-220v92h138v28H63V0H30v-248h175v28H63" id="bZ"/><path fill="#7ab648" d="M24-231v-30h32v30H24zM24 0v-190h32V0H24" id="ca"/><path fill="#7ab648" d="M114-163C36-179 61-72 57 0H25l-1-190h30c1 12-1 29 2 39 6-27 23-49 58-41v29" id="cb"/><path fill="#7ab648" d="M135-143c-3-34-86-38-87 0 15 53 115 12 119 90S17 21 10-45l28-5c4 36 97 45 98 0-10-56-113-15-118-90-4-57 82-63 122-42 12 7 21 19 24 35" id="cc"/><path fill="#7ab648" d="M59-47c-2 24 18 29 38 22v24C64 9 27 4 27-40v-127H5v-23h24l9-43h21v43h35v23H59v120" id="cd"/><g id="x"><use transform="matrix(0.05,0,0,0.05,0,0)" xlink:href="#bZ"/><use transform="matrix(0.05,0,0,0.05,10.950000000000001,0)" xlink:href="#ca"/><use transform="matrix(0.05,0,0,0.05,14.9,0)" xlink:href="#cb"/><use transform="matrix(0.05,0,0,0.05,20.85,0)" xlink:href="#cc"/><use transform="matrix(0.05,0,0,0.05,29.85,0)" xlink:href="#cd"/></g><path fill="#7ab648" d="M96-169c-40 0-48 33-48 73s9 75 48 75c24 0 41-14 43-38l32 2c-6 37-31 61-74 61-59 0-76-41-82-99-10-93 101-131 147-64 4 7 5 14 7 22l-32 3c-4-21-16-35-41-35" id="ce"/><path fill="#7ab648" d="M100-194c62-1 85 37 85 99 1 63-27 99-86 99S16-35 15-95c0-66 28-99 85-99zM99-20c44 1 53-31 53-75 0-43-8-75-51-75s-53 32-53 75 10 74 51 75" id="cf"/><path fill="#7ab648" d="M117-194c89-4 53 116 60 194h-32v-121c0-31-8-49-39-48C34-167 62-67 57 0H25l-1-190h30c1 10-1 24 2 32 11-22 29-35 61-36" id="cg"/><path fill="#7ab648" d="M85-194c31 0 48 13 60 33l-1-100h32l1 261h-30c-2-10 0-23-3-31C134-8 116 4 85 4 32 4 16-35 15-94c0-66 23-100 70-100zm9 24c-40 0-46 34-46 75 0 40 6 74 45 74 42 0 51-32 51-76 0-42-9-74-50-73" id="ch"/><g id="y"><use transform="matrix(0.05,0,0,0.05,0,0)" xlink:href="#ce"/><use transform="matrix(0.05,0,0,0.05,9,0)" xlink:href="#cf"/><use transform="matrix(0.05,0,0,0.05,19,0)" xlink:href="#cg"/><use transform="matrix(0.05,0,0,0.05,29,0)" xlink:href="#ch"/><use transform="matrix(0.05,0,0,0.05,39,0)" xlink:href="#ca"/><use transform="matrix(0.05,0,0,0.05,42.95,0)" xlink:href="#cd"/><use transform="matrix(0.05,0,0,0.05,47.95,0)" xlink:href="#ca"/><use transform="matrix(0.05,0,0,0.05,51.900000000000006,0)" xlink:href="#cf"/><use transform="matrix(0.05,0,0,0.05,61.900000000000006,0)" xlink:href="#cg"/></g><path fill="#7ab648" d="M185-189c-5-48-123-54-124 2 14 75 158 14 163 119 3 78-121 87-175 55-17-10-28-26-33-46l33-7c5 56 141 63 141-1 0-78-155-14-162-118-5-82 145-84 179-34 5 7 8 16 11 25" id="ci"/><path fill="#7ab648" d="M100-194c63 0 86 42 84 106H49c0 40 14 67 53 68 26 1 43-12 49-29l28 8c-11 28-37 45-77 45C44 4 14-33 15-96c1-61 26-98 85-98zm52 81c6-60-76-77-97-28-3 7-6 17-6 28h103" id="cj"/><g id="A"><use transform="matrix(0.05,0,0,0.05,0,0)" xlink:href="#ci"/><use transform="matrix(0.05,0,0,0.05,12,0)" xlink:href="#cj"/><use transform="matrix(0.05,0,0,0.05,22,0)" xlink:href="#ce"/><use transform="matrix(0.05,0,0,0.05,31,0)" xlink:href="#cf"/><use transform="matrix(0.05,0,0,0.05,41,0)" xlink:href="#cg"/><use transform="matrix(0.05,0,0,0.05,51,0)" xlink:href="#ch"/></g><g id="B"><use transform="matrix(0.05,0,0,0.05,0,0)" xlink:href="#ce"/><use transform="matrix(0.05,0,0,0.05,9,0)" xlink:href="#cf"/><use transform="matrix(0.05,0,0,0.05,19,0)" xlink:href="#cg"/><use transform="matrix(0.05,0,0,0.05,29,0)" xlink:href="#ch"/><use transform="matrix(0.05,0,0,0.05,39,0)" xlink:href="#ca"/><use transform="matrix(0.05,0,0,0.05,42.95,0)" xlink:href="#cd"/><use transform="matrix(0.05,0,0,0.05,47.95,0)" xlink:href="#ca"/><use transform="matrix(0.05,0,0,0.05,51.900000000000006,0)" xlink:href="#cf"/><use transform="matrix(0.05,0,0,0.05,61.900000000000006,0)" xlink:href="#cg"/></g><path d="M137-103V0h-34v-103L8-248h37l75 118 75-118h37" id="ck"/><path d="M30 0v-248h187v28H63v79h144v27H63v87h162V0H30" id="cl"/><path d="M185-189c-5-48-123-54-124 2 14 75 158 14 163 119 3 78-121 87-175 55-17-10-28-26-33-46l33-7c5 56 141 63 141-1 0-78-155-14-162-118-5-82 145-84 179-34 5 7 8 16 11 25" id="cm"/><g id="C"><use transform="matrix(0.05,0,0,0.05,0,0)" xlink:href="#ck"/><use transform="matrix(0.05,0,0,0.05,12,0)" xlink:href="#cl"/><use transform="matrix(0.05,0,0,0.05,24,0)" xlink:href="#cm"/></g><path d="M233-177c-1 41-23 64-60 70L243 0h-38l-65-103H63V0H30v-248c88 3 205-21 203 71zM63-129c60-2 137 13 137-47 0-61-80-42-137-45v92" id="cn"/><path d="M140-251c81 0 123 46 123 126C263-53 228-8 163 1c7 30 30 48 69 40v23c-55 16-95-15-103-61C56-3 17-48 17-125c0-80 42-126 123-126zm0 227c63 0 89-41 89-101s-29-99-89-99c-61 0-89 39-89 99S79-25 140-24" id="co"/><path d="M232-93c-1 65-40 97-104 97C67 4 28-28 28-90v-158h33c8 89-33 224 67 224 102 0 64-133 71-224h33v155" id="cp"/><path d="M127-220V0H93v-220H8v-28h204v28h-85" id="cq"/><g id="D"><use transform="matrix(0.04938271604938272,0,0,0.04938271604938272,0,0)" xlink:href="#cn"/><use transform="matrix(0.04938271604938272,0,0,0.04938271604938272,12.790123456790125,0)" xlink:href="#cl"/><use transform="matrix(0.04938271604938272,0,0,0.04938271604938272,24.641975308641978,0)" xlink:href="#co"/><use transform="matrix(0.04938271604938272,0,0,0.04938271604938272,38.46913580246914,0)" xlink:href="#cp"/><use transform="matrix(0.04938271604938272,0,0,0.04938271604938272,51.25925925925927,0)" xlink:href="#cl"/><use transform="matrix(0.04938271604938272,0,0,0.04938271604938272,63.111111111111114,0)" xlink:href="#cm"/><use transform="matrix(0.04938271604938272,0,0,0.04938271604938272,74.96296296296298,0)" xlink:href="#cq"/></g><path d="M205 0l-28-72H64L36 0H1l101-248h38L239 0h-34zm-38-99l-47-123c-12 45-31 82-46 123h93" id="cr"/><path d="M212-179c-10-28-35-45-73-45-59 0-87 40-87 99 0 60 29 101 89 101 43 0 62-24 78-52l27 14C228-24 195 4 139 4 59 4 22-46 18-125c-6-104 99-153 187-111 19 9 31 26 39 46" id="cs"/><path d="M30-248c87 1 191-15 191 75 0 78-77 80-158 76V0H30v-248zm33 125c57 0 124 11 124-50 0-59-68-47-124-48v98" id="ct"/><path d="M30-248c118-7 216 8 213 122C240-48 200 0 122 0H30v-248zM63-27c89 8 146-16 146-99s-60-101-146-95v194" id="cu"/><g id="E"><use transform="matrix(0.04938271604938272,0,0,0.04938271604938272,0,0)" xlink:href="#cr"/><use transform="matrix(0.04938271604938272,0,0,0.04938271604938272,11.851851851851853,0)" xlink:href="#cs"/><use transform="matrix(0.04938271604938272,0,0,0.04938271604938272,24.641975308641978,0)" xlink:href="#cs"/><use transform="matrix(0.04938271604938272,0,0,0.04938271604938272,37.4320987654321,0)" xlink:href="#cl"/><use transform="matrix(0.04938271604938272,0,0,0.04938271604938272,49.283950617283956,0)" xlink:href="#ct"/><use transform="matrix(0.04938271604938272,0,0,0.04938271604938272,61.13580246913581,0)" xlink:href="#cq"/><use transform="matrix(0.04938271604938272,0,0,0.04938271604938272,71.95061728395062,0)" xlink:href="#cl"/><use transform="matrix(0.04938271604938272,0,0,0.04938271604938272,83.80246913580247,0)" xlink:href="#cu"/></g><path d="M210-169c-67 3-38 105-44 169h-31v-121c0-29-5-50-35-48C34-165 62-65 56 0H25l-1-190h30c1 10-1 24 2 32 10-44 99-50 107 0 11-21 27-35 58-36 85-2 47 119 55 194h-31v-121c0-29-5-49-35-48" id="cv"/><path d="M47-170H22l-4-78h33" id="cw"/><g id="F"><use transform="matrix(0.04938271604938272,0,0,0.04938271604938272,0,0)" xlink:href="#bt"/><use transform="matrix(0.04938271604938272,0,0,0.04938271604938272,9.876543209876544,0)" xlink:href="#cv"/><use transform="matrix(0.04938271604938272,0,0,0.04938271604938272,24.641975308641978,0)" xlink:href="#br"/><use transform="matrix(0.04938271604938272,0,0,0.04938271604938272,34.51851851851852,0)" xlink:href="#bl"/><use transform="matrix(0.04938271604938272,0,0,0.04938271604938272,38.41975308641975,0)" xlink:href="#bp"/><use transform="matrix(0.04938271604938272,0,0,0.04938271604938272,48.2962962962963,0)" xlink:href="#bz"/><use transform="matrix(0.04938271604938272,0,0,0.04938271604938272,57.18518518518519,0)" xlink:href="#bt"/><use transform="matrix(0.04938271604938272,0,0,0.04938271604938272,67.06172839506173,0)" xlink:href="#bt"/><use transform="matrix(0.04938271604938272,0,0,0.04938271604938272,76.93827160493828,0)" xlink:href="#cw"/><use transform="matrix(0.04938271604938272,0,0,0.04938271604938272,80.2962962962963,0)" xlink:href="#bs"/></g><path d="M114-163C36-179 61-72 57 0H25l-1-190h30c1 12-1 29 2 39 6-27 23-49 58-41v29" id="cx"/><g id="G"><use transform="matrix(0.04938271604938272,0,0,0.04938271604938272,0,0)" xlink:href="#bk"/><use transform="matrix(0.04938271604938272,0,0,0.04938271604938272,8.88888888888889,0)" xlink:href="#bp"/><use transform="matrix(0.04938271604938272,0,0,0.04938271604938272,18.765432098765434,0)" xlink:href="#bw"/><use transform="matrix(0.04938271604938272,0,0,0.04938271604938272,28.641975308641978,0)" xlink:href="#bo"/><use transform="matrix(0.04938271604938272,0,0,0.04938271604938272,33.580246913580254,0)" xlink:href="#cx"/><use transform="matrix(0.04938271604938272,0,0,0.04938271604938272,39.4567901234568,0)" xlink:href="#bq"/><use transform="matrix(0.04938271604938272,0,0,0.04938271604938272,49.33333333333334,0)" xlink:href="#bk"/><use transform="matrix(0.04938271604938272,0,0,0.04938271604938272,58.22222222222223,0)" xlink:href="#bo"/></g><path d="M108 0H70L1-190h34L89-25l56-165h34" id="cy"/><g id="H"><use transform="matrix(0.04938271604938272,0,0,0.04938271604938272,0,0)" xlink:href="#cy"/><use transform="matrix(0.04938271604938272,0,0,0.04938271604938272,8.88888888888889,0)" xlink:href="#bq"/><use transform="matrix(0.04938271604938272,0,0,0.04938271604938272,18.765432098765434,0)" xlink:href="#cx"/><use transform="matrix(0.04938271604938272,0,0,0.04938271604938272,24.641975308641978,0)" xlink:href="#bm"/><use transform="matrix(0.04938271604938272,0,0,0.04938271604938272,28.543209876543212,0)" xlink:href="#bt"/><use transform="matrix(0.04938271604938272,0,0,0.04938271604938272,38.41975308641976,0)" xlink:href="#bx"/></g><g id="J"><use transform="matrix(0.03703703703703704,0,0,0.03703703703703704,0,0)" xlink:href="#cx"/><use transform="matrix(0.03703703703703704,0,0,0.03703703703703704,4.407407407407408,0)" xlink:href="#bt"/><use transform="matrix(0.03703703703703704,0,0,0.03703703703703704,11.814814814814817,0)" xlink:href="#bx"/><use transform="matrix(0.03703703703703704,0,0,0.03703703703703704,19.222222222222225,0)" xlink:href="#bm"/><use transform="matrix(0.03703703703703704,0,0,0.03703703703703704,22.148148148148152,0)" xlink:href="#cx"/><use transform="matrix(0.03703703703703704,0,0,0.03703703703703704,26.55555555555556,0)" xlink:href="#bt"/><use transform="matrix(0.03703703703703704,0,0,0.03703703703703704,33.96296296296297,0)" xlink:href="#bk"/><use transform="matrix(0.03703703703703704,0,0,0.03703703703703704,40.62962962962963,0)" xlink:href="#bo"/></g><g id="K"><use transform="matrix(0.03703703703703704,0,0,0.03703703703703704,0,0)" xlink:href="#bo"/><use transform="matrix(0.03703703703703704,0,0,0.03703703703703704,3.703703703703704,0)" xlink:href="#bp"/></g><path d="M206 0h-36l-40-164L89 0H53L-1-190h32L70-26l43-164h34l41 164 42-164h31" id="cz"/><path d="M33 0v-38h34V0H33" id="cA"/><g id="L"><use transform="matrix(0.03703703703703704,0,0,0.03703703703703704,0,0)" xlink:href="#cz"/><use transform="matrix(0.03703703703703704,0,0,0.03703703703703704,9.592592592592593,0)" xlink:href="#cz"/><use transform="matrix(0.03703703703703704,0,0,0.03703703703703704,19.185185185185187,0)" xlink:href="#cz"/><use transform="matrix(0.03703703703703704,0,0,0.03703703703703704,28.037037037037038,0)" xlink:href="#cA"/><use transform="matrix(0.03703703703703704,0,0,0.03703703703703704,31.74074074074074,0)" xlink:href="#bt"/><use transform="matrix(0.03703703703703704,0,0,0.03703703703703704,39.14814814814815,0)" xlink:href="#br"/><use transform="matrix(0.03703703703703704,0,0,0.03703703703703704,46.55555555555555,0)" xlink:href="#bq"/><use transform="matrix(0.03703703703703704,0,0,0.03703703703703704,53.96296296296296,0)" xlink:href="#cv"/><use transform="matrix(0.03703703703703704,0,0,0.03703703703703704,65.03703703703704,0)" xlink:href="#cA"/><use transform="matrix(0.03703703703703704,0,0,0.03703703703703704,68.74074074074075,0)" xlink:href="#bk"/><use transform="matrix(0.03703703703703704,0,0,0.03703703703703704,75.40740740740742,0)" xlink:href="#bp"/><use transform="matrix(0.03703703703703704,0,0,0.03703703703703704,82.81481481481482,0)" xlink:href="#cv"/><use transform="matrix(0.03703703703703704,0,0,0.03703703703703704,93.8888888888889,0)" xlink:href="#bA"/></g><path d="M190 0L58-211 59 0H30v-248h39L202-35l-2-213h31V0h-41" id="cB"/><path d="M140-251c81 0 123 46 123 126C263-46 219 4 140 4 59 4 17-45 17-125s42-126 123-126zm0 227c63 0 89-41 89-101s-29-99-89-99c-61 0-89 39-89 99S79-25 140-24" id="cC"/><g id="M"><use transform="matrix(0.05,0,0,0.05,0,0)" xlink:href="#cB"/><use transform="matrix(0.05,0,0,0.05,12.950000000000001,0)" xlink:href="#cC"/></g><path d="M68-38c1 34 0 65-14 84H32c9-13 17-26 17-46H33v-38h35" id="cD"/><g id="N"><use transform="matrix(0.04938271604938272,0,0,0.04938271604938272,0,0)" xlink:href="#cB"/><use transform="matrix(0.04938271604938272,0,0,0.04938271604938272,12.790123456790125,0)" xlink:href="#cC"/><use transform="matrix(0.04938271604938272,0,0,0.04938271604938272,26.617283950617285,0)" xlink:href="#cD"/></g><path d="M84 4C-5 8 30-112 23-190h32v120c0 31 7 50 39 49 72-2 45-101 50-169h31l1 190h-30c-1-10 1-25-2-33-11 22-28 36-60 37" id="cE"/><g id="O"><use transform="matrix(0.04938271604938272,0,0,0.04938271604938272,0,0)" xlink:href="#by"/><use transform="matrix(0.04938271604938272,0,0,0.04938271604938272,9.876543209876544,0)" xlink:href="#cE"/><use transform="matrix(0.04938271604938272,0,0,0.04938271604938272,19.75308641975309,0)" xlink:href="#bo"/></g><path d="M106-169C34-169 62-67 57 0H25v-261h32l-1 103c12-21 28-36 61-36 89 0 53 116 60 194h-32v-121c2-32-8-49-39-48" id="cF"/><g id="P"><use transform="matrix(0.04938271604938272,0,0,0.04938271604938272,0,0)" xlink:href="#bo"/><use transform="matrix(0.04938271604938272,0,0,0.04938271604938272,4.938271604938272,0)" xlink:href="#cF"/><use transform="matrix(0.04938271604938272,0,0,0.04938271604938272,14.814814814814817,0)" xlink:href="#bt"/></g><g id="Q"><use transform="matrix(0.04938271604938272,0,0,0.04938271604938272,0,0)" xlink:href="#br"/><use transform="matrix(0.04938271604938272,0,0,0.04938271604938272,9.876543209876544,0)" xlink:href="#bq"/><use transform="matrix(0.04938271604938272,0,0,0.04938271604938272,19.75308641975309,0)" xlink:href="#cx"/><use transform="matrix(0.04938271604938272,0,0,0.04938271604938272,25.629629629629633,0)" xlink:href="#bo"/><use transform="matrix(0.04938271604938272,0,0,0.04938271604938272,30.567901234567906,0)" xlink:href="#bm"/><use transform="matrix(0.04938271604938272,0,0,0.04938271604938272,34.46913580246914,0)" xlink:href="#bt"/><use transform="matrix(0.04938271604938272,0,0,0.04938271604938272,44.345679012345684,0)" xlink:href="#bs"/></g><path d="M177-190C167-65 218 103 67 71c-23-6-38-20-44-43l32-5c15 47 100 32 89-28v-30C133-14 115 1 83 1 29 1 15-40 15-95c0-56 16-97 71-98 29-1 48 16 59 35 1-10 0-23 2-32h30zM94-22c36 0 50-32 50-73 0-42-14-75-50-75-39 0-46 34-46 75s6 73 46 73" id="cG"/><g id="R"><use transform="matrix(0.04938271604938272,0,0,0.04938271604938272,0,0)" xlink:href="#bq"/><use transform="matrix(0.04938271604938272,0,0,0.04938271604938272,9.876543209876544,0)" xlink:href="#cG"/><use transform="matrix(0.04938271604938272,0,0,0.04938271604938272,19.75308641975309,0)" xlink:href="#cx"/><use transform="matrix(0.04938271604938272,0,0,0.04938271604938272,25.629629629629633,0)" xlink:href="#bt"/><use transform="matrix(0.04938271604938272,0,0,0.04938271604938272,35.50617283950618,0)" xlink:href="#bt"/></g><path d="M33-154v-36h34v36H33zM33 0v-36h34V0H33" id="cH"/><g id="S"><use transform="matrix(0.04938271604938272,0,0,0.04938271604938272,0,0)" xlink:href="#bo"/><use transform="matrix(0.04938271604938272,0,0,0.04938271604938272,4.938271604938272,0)" xlink:href="#bp"/><use transform="matrix(0.04938271604938272,0,0,0.04938271604938272,14.814814814814817,0)" xlink:href="#cH"/></g><path d="M16-82v-28h88v28H16" id="cI"/><use transform="matrix(0.04938271604938272,0,0,0.04938271604938272,0,0)" xlink:href="#cI" id="U"/><path d="M101-234c-31-9-42 10-38 44h38v23H63V0H32v-167H5v-23h27c-7-52 17-82 69-68v24" id="cJ"/><g id="V"><use transform="matrix(0.04938271604938272,0,0,0.04938271604938272,0,0)" xlink:href="#cJ"/><use transform="matrix(0.04938271604938272,0,0,0.04938271604938272,4.938271604938272,0)" xlink:href="#cE"/><use transform="matrix(0.04938271604938272,0,0,0.04938271604938272,14.814814814814817,0)" xlink:href="#cx"/><use transform="matrix(0.04938271604938272,0,0,0.04938271604938272,20.69135802469136,0)" xlink:href="#bo"/><use transform="matrix(0.04938271604938272,0,0,0.04938271604938272,25.629629629629633,0)" xlink:href="#cF"/><use transform="matrix(0.04938271604938272,0,0,0.04938271604938272,35.50617283950618,0)" xlink:href="#bt"/><use transform="matrix(0.04938271604938272,0,0,0.04938271604938272,45.38271604938272,0)" xlink:href="#cx"/></g><g id="W"><use transform="matrix(0.04938271604938272,0,0,0.04938271604938272,0,0)" xlink:href="#bx"/><use transform="matrix(0.04938271604938272,0,0,0.04938271604938272,9.876543209876544,0)" xlink:href="#bm"/><use transform="matrix(0.04938271604938272,0,0,0.04938271604938272,13.777777777777779,0)" xlink:href="#bs"/><use transform="matrix(0.04938271604938272,0,0,0.04938271604938272,22.666666666666668,0)" xlink:href="#bk"/><use transform="matrix(0.04938271604938272,0,0,0.04938271604938272,31.555555555555557,0)" xlink:href="#cE"/><use transform="matrix(0.04938271604938272,0,0,0.04938271604938272,41.4320987654321,0)" xlink:href="#bs"/><use transform="matrix(0.04938271604938272,0,0,0.04938271604938272,50.32098765432099,0)" xlink:href="#bs"/><use transform="matrix(0.04938271604938272,0,0,0.04938271604938272,59.20987654320987,0)" xlink:href="#bm"/><use transform="matrix(0.04938271604938272,0,0,0.04938271604938272,63.11111111111111,0)" xlink:href="#bp"/><use transform="matrix(0.04938271604938272,0,0,0.04938271604938272,72.98765432098764,0)" xlink:href="#bw"/><use transform="matrix(0.04938271604938272,0,0,0.04938271604938272,82.86419753086419,0)" xlink:href="#bs"/></g><use transform="matrix(0.04938271604938272,0,0,0.04938271604938272,0,0)" xlink:href="#cI" id="X"/><use transform="matrix(0.04938271604938272,0,0,0.04938271604938272,0,0)" xlink:href="#bq" id="Y"/><g id="Z"><use transform="matrix(0.04938271604938272,0,0,0.04938271604938272,0,0)" xlink:href="#bo"/><use transform="matrix(0.04938271604938272,0,0,0.04938271604938272,4.938271604938272,0)" xlink:href="#cx"/><use transform="matrix(0.04938271604938272,0,0,0.04938271604938272,10.814814814814817,0)" xlink:href="#bm"/><use transform="matrix(0.04938271604938272,0,0,0.04938271604938272,14.71604938271605,0)" xlink:href="#bq"/><use transform="matrix(0.04938271604938272,0,0,0.04938271604938272,24.592592592592595,0)" xlink:href="#bl"/></g><g id="aa"><use transform="matrix(0.04938271604938272,0,0,0.04938271604938272,0,0)" xlink:href="#br"/><use transform="matrix(0.04938271604938272,0,0,0.04938271604938272,9.876543209876544,0)" xlink:href="#bt"/><use transform="matrix(0.04938271604938272,0,0,0.04938271604938272,19.75308641975309,0)" xlink:href="#cx"/><use transform="matrix(0.04938271604938272,0,0,0.04938271604938272,25.629629629629633,0)" xlink:href="#bm"/><use transform="matrix(0.04938271604938272,0,0,0.04938271604938272,29.530864197530867,0)" xlink:href="#bp"/><use transform="matrix(0.04938271604938272,0,0,0.04938271604938272,39.40740740740741,0)" xlink:href="#bx"/></g><path d="M33 0v-248h34V0H33" id="cK"/><g id="ab"><use transform="matrix(0.04938271604938272,0,0,0.04938271604938272,0,0)" xlink:href="#cK"/><use transform="matrix(0.04938271604938272,0,0,0.04938271604938272,4.938271604938272,0)" xlink:href="#bs"/></g><path d="M145-31C134-9 116 4 85 4 32 4 16-35 15-94c0-59 17-99 70-100 32-1 48 14 60 33 0-11-1-24 2-32h30l-1 268h-32zM93-21c41 0 51-33 51-76s-8-73-50-73c-40 0-46 35-46 75s5 74 45 74" id="cL"/><g id="ac"><use transform="matrix(0.04938271604938272,0,0,0.04938271604938272,0,0)" xlink:href="#cx"/><use transform="matrix(0.04938271604938272,0,0,0.04938271604938272,5.8765432098765435,0)" xlink:href="#bt"/><use transform="matrix(0.04938271604938272,0,0,0.04938271604938272,15.753086419753087,0)" xlink:href="#cL"/><use transform="matrix(0.04938271604938272,0,0,0.04938271604938272,25.629629629629633,0)" xlink:href="#cE"/><use transform="matrix(0.04938271604938272,0,0,0.04938271604938272,35.50617283950618,0)" xlink:href="#bt"/><use transform="matrix(0.04938271604938272,0,0,0.04938271604938272,45.38271604938272,0)" xlink:href="#bs"/><use transform="matrix(0.04938271604938272,0,0,0.04938271604938272,54.27160493827161,0)" xlink:href="#bo"/></g><g id="ad"><use transform="matrix(0.04938271604938272,0,0,0.04938271604938272,0,0)" xlink:href="#bo"/><use transform="matrix(0.04938271604938272,0,0,0.04938271604938272,4.938271604938272,0)" xlink:href="#cF"/><use transform="matrix(0.04938271604938272,0,0,0.04938271604938272,14.814814814814817,0)" xlink:href="#bt"/><use transform="matrix(0.04938271604938272,0,0,0.04938271604938272,24.69135802469136,0)" xlink:href="#bw"/></g><path d="M103-251c84 0 111 97 45 133-19 10-37 24-39 52H78c0-63 77-55 77-114 0-30-21-42-52-43-32 0-53 17-56 46l-32-2c7-45 34-72 88-72zM77 0v-35h34V0H77" id="cM"/><g id="ae"><use transform="matrix(0.04938271604938272,0,0,0.04938271604938272,0,0)" xlink:href="#bq"/><use transform="matrix(0.04938271604938272,0,0,0.04938271604938272,9.876543209876544,0)" xlink:href="#bk"/><use transform="matrix(0.04938271604938272,0,0,0.04938271604938272,18.765432098765434,0)" xlink:href="#bk"/><use transform="matrix(0.04938271604938272,0,0,0.04938271604938272,27.654320987654323,0)" xlink:href="#bt"/><use transform="matrix(0.04938271604938272,0,0,0.04938271604938272,37.53086419753087,0)" xlink:href="#br"/><use transform="matrix(0.04938271604938272,0,0,0.04938271604938272,47.40740740740741,0)" xlink:href="#bo"/><use transform="matrix(0.04938271604938272,0,0,0.04938271604938272,52.345679012345684,0)" xlink:href="#bt"/><use transform="matrix(0.04938271604938272,0,0,0.04938271604938272,62.22222222222223,0)" xlink:href="#bx"/><use transform="matrix(0.04938271604938272,0,0,0.04938271604938272,72.09876543209877,0)" xlink:href="#cM"/></g><path d="M175 0L67-191c6 58 2 128 3 191H24v-248h59L193-55c-6-58-2-129-3-193h46V0h-61" id="cN"/><path d="M140-251c80 0 125 45 125 126S219 4 139 4C58 4 15-44 15-125s44-126 125-126zm-1 214c52 0 73-35 73-88 0-50-21-86-72-86-52 0-73 35-73 86s22 88 72 88" id="cO"/><path d="M76-54c-1 42 2 86-19 110H24C36 42 46 24 48 0H25v-54h51" id="cP"/><g id="af"><use transform="matrix(0.04938271604938272,0,0,0.04938271604938272,0,0)" xlink:href="#cN"/><use transform="matrix(0.04938271604938272,0,0,0.04938271604938272,12.790123456790125,0)" xlink:href="#cO"/><use transform="matrix(0.04938271604938272,0,0,0.04938271604938272,26.617283950617285,0)" xlink:href="#cP"/></g><g id="ag"><use transform="matrix(0.04938271604938272,0,0,0.04938271604938272,0,0)" xlink:href="#ba"/><use transform="matrix(0.04938271604938272,0,0,0.04938271604938272,5.8765432098765435,0)" xlink:href="#bb"/><use transform="matrix(0.04938271604938272,0,0,0.04938271604938272,16.691358024691358,0)" xlink:href="#aS"/></g><g id="ah"><use transform="matrix(0.04938271604938272,0,0,0.04938271604938272,0,0)" xlink:href="#bg"/><use transform="matrix(0.04938271604938272,0,0,0.04938271604938272,4.938271604938272,0)" xlink:href="#be"/></g><path d="M25-224v-37h50v37H25zM75 22c2 45-34 59-81 51V38c22 5 31-5 31-27v-201h50V22" id="cQ"/><path d="M88-194c31-1 46 15 58 34l-1-101h50l1 261h-48c-2-10 0-23-3-31C134-8 116 4 84 4 32 4 16-41 15-95c0-56 19-97 73-99zm17 164c33 0 40-30 41-66 1-37-9-64-41-64s-38 30-39 65c0 43 13 65 39 65" id="cR"/><g id="ai"><use transform="matrix(0.04938271604938272,0,0,0.04938271604938272,0,0)" xlink:href="#aY"/><use transform="matrix(0.04938271604938272,0,0,0.04938271604938272,6.913580246913581,0)" xlink:href="#aS"/><use transform="matrix(0.04938271604938272,0,0,0.04938271604938272,16.790123456790127,0)" xlink:href="#cQ"/><use transform="matrix(0.04938271604938272,0,0,0.04938271604938272,21.7283950617284,0)" xlink:href="#aS"/><use transform="matrix(0.04938271604938272,0,0,0.04938271604938272,31.60493827160494,0)" xlink:href="#aZ"/><use transform="matrix(0.04938271604938272,0,0,0.04938271604938272,41.48148148148149,0)" xlink:href="#ba"/><use transform="matrix(0.04938271604938272,0,0,0.04938271604938272,47.35802469135803,0)" xlink:href="#aS"/><use transform="matrix(0.04938271604938272,0,0,0.04938271604938272,57.23456790123457,0)" xlink:href="#cR"/></g><path fill="#ef8d22" d="M233-177c-1 41-23 64-60 70L243 0h-38l-65-103H63V0H30v-248c88 3 205-21 203 71zM63-129c60-2 137 13 137-47 0-61-80-42-137-45v92" id="cS"/><g id="aj"><use transform="matrix(0.05,0,0,0.05,0,0)" xlink:href="#cS"/><use transform="matrix(0.05,0,0,0.05,12.950000000000001,0)" xlink:href="#bC"/><use transform="matrix(0.05,0,0,0.05,22.950000000000003,0)" xlink:href="#bU"/><use transform="matrix(0.05,0,0,0.05,32.95,0)" xlink:href="#bD"/><use transform="matrix(0.05,0,0,0.05,41.95,0)" xlink:href="#bJ"/><use transform="matrix(0.05,0,0,0.05,51.95,0)" xlink:href="#bK"/><use transform="matrix(0.05,0,0,0.05,61.95,0)" xlink:href="#bD"/><use transform="matrix(0.05,0,0,0.05,70.95,0)" xlink:href="#bL"/></g><g id="al"><use transform="matrix(0.05,0,0,0.05,0,0)" xlink:href="#bM"/><use transform="matrix(0.05,0,0,0.05,10,0)" xlink:href="#bN"/></g><path fill="#ef8d22" d="M63-220v92h138v28H63V0H30v-248h175v28H63" id="cT"/><g id="am"><use transform="matrix(0.05,0,0,0.05,0,0)" xlink:href="#cT"/><use transform="matrix(0.05,0,0,0.05,10.950000000000001,0)" xlink:href="#bG"/><use transform="matrix(0.05,0,0,0.05,14.9,0)" xlink:href="#bF"/><use transform="matrix(0.05,0,0,0.05,20.85,0)" xlink:href="#bD"/><use transform="matrix(0.05,0,0,0.05,29.85,0)" xlink:href="#bI"/></g><path fill="#ef8d22" d="M143 0L79-87 56-68V0H24v-261h32v163l83-92h37l-77 82L181 0h-38" id="cU"/><g id="an"><use transform="matrix(0.05,0,0,0.05,0,0)" xlink:href="#bR"/><use transform="matrix(0.05,0,0,0.05,3.95,0)" xlink:href="#bG"/><use transform="matrix(0.05,0,0,0.05,7.9,0)" xlink:href="#bK"/><use transform="matrix(0.05,0,0,0.05,17.9,0)" xlink:href="#cU"/></g><g id="ao"><use transform="matrix(0.05,0,0,0.05,0,0)" xlink:href="#bW"/><use transform="matrix(0.05,0,0,0.05,10,0)" xlink:href="#bN"/></g><path fill="#ef8d22" d="M185-189c-5-48-123-54-124 2 14 75 158 14 163 119 3 78-121 87-175 55-17-10-28-26-33-46l33-7c5 56 141 63 141-1 0-78-155-14-162-118-5-82 145-84 179-34 5 7 8 16 11 25" id="cV"/><g id="ap"><use transform="matrix(0.05,0,0,0.05,0,0)" xlink:href="#cV"/><use transform="matrix(0.05,0,0,0.05,12,0)" xlink:href="#bC"/><use transform="matrix(0.05,0,0,0.05,22,0)" xlink:href="#bE"/><use transform="matrix(0.05,0,0,0.05,31,0)" xlink:href="#bJ"/><use transform="matrix(0.05,0,0,0.05,41,0)" xlink:href="#bK"/><use transform="matrix(0.05,0,0,0.05,51,0)" xlink:href="#bT"/></g><path fill="#ef8d22" d="M126-127c33 6 58 20 58 59 0 88-139 92-164 29-3-8-5-16-6-25l32-3c6 27 21 44 54 44 32 0 52-15 52-46 0-38-36-46-79-43v-28c39 1 72-4 72-42 0-27-17-43-46-43-28 0-47 15-49 41l-32-3c6-42 35-63 81-64 48-1 79 21 79 65 0 36-21 52-52 59" id="cW"/><g id="aq"><use transform="matrix(0.05,0,0,0.05,0,0)" xlink:href="#cW"/><use transform="matrix(0.05,0,0,0.05,10,0)" xlink:href="#bN"/></g><path fill="#ef8d22" d="M127-220V0H93v-220H8v-28h204v28h-85" id="cX"/><g id="ar"><use transform="matrix(0.05,0,0,0.05,0,0)" xlink:href="#cX"/><use transform="matrix(0.05,0,0,0.05,10.950000000000001,0)" xlink:href="#bO"/><use transform="matrix(0.05,0,0,0.05,20.950000000000003,0)" xlink:href="#bG"/><use transform="matrix(0.05,0,0,0.05,24.900000000000002,0)" xlink:href="#bF"/><use transform="matrix(0.05,0,0,0.05,30.85,0)" xlink:href="#bT"/></g><path fill="#ef8d22" d="M155-56V0h-30v-56H8v-25l114-167h33v167h35v25h-35zm-30-156c-27 46-58 90-88 131h88v-131" id="cY"/><g id="as"><use transform="matrix(0.05,0,0,0.05,0,0)" xlink:href="#cY"/><use transform="matrix(0.05,0,0,0.05,10,0)" xlink:href="#bN"/></g><g id="at"><use transform="matrix(0.05,0,0,0.05,0,0)" xlink:href="#cT"/><use transform="matrix(0.05,0,0,0.05,10.950000000000001,0)" xlink:href="#bJ"/><use transform="matrix(0.05,0,0,0.05,20.950000000000003,0)" xlink:href="#bF"/><use transform="matrix(0.05,0,0,0.05,26.900000000000002,0)" xlink:href="#bI"/><use transform="matrix(0.05,0,0,0.05,31.900000000000002,0)" xlink:href="#bO"/></g><g id="av"><use transform="matrix(0.04938271604938272,0,0,0.04938271604938272,0,0)" xlink:href="#cn"/><use transform="matrix(0.04938271604938272,0,0,0.04938271604938272,12.790123456790125,0)" xlink:href="#cl"/><use transform="matrix(0.04938271604938272,0,0,0.04938271604938272,24.641975308641978,0)" xlink:href="#co"/><use transform="matrix(0.04938271604938272,0,0,0.04938271604938272,38.46913580246914,0)" xlink:href="#cp"/><use transform="matrix(0.04938271604938272,0,0,0.04938271604938272,51.25925925925927,0)" xlink:href="#cl"/><use transform="matrix(0.04938271604938272,0,0,0.04938271604938272,63.111111111111114,0)" xlink:href="#cm"/><use transform="matrix(0.04938271604938272,0,0,0.04938271604938272,74.96296296296298,0)" xlink:href="#cq"/></g><path d="M153-248C145-148 188 4 80 4 36 3 13-21 6-62l32-5c4 25 16 42 43 43 27 0 39-20 39-49v-147H72v-28h81" id="cZ"/><g id="aw"><use transform="matrix(0.04938271604938272,0,0,0.04938271604938272,0,0)" xlink:href="#cn"/><use transform="matrix(0.04938271604938272,0,0,0.04938271604938272,12.790123456790125,0)" xlink:href="#cl"/><use transform="matrix(0.04938271604938272,0,0,0.04938271604938272,24.641975308641978,0)" xlink:href="#cZ"/><use transform="matrix(0.04938271604938272,0,0,0.04938271604938272,33.53086419753087,0)" xlink:href="#cl"/><use transform="matrix(0.04938271604938272,0,0,0.04938271604938272,45.38271604938272,0)" xlink:href="#cs"/><use transform="matrix(0.04938271604938272,0,0,0.04938271604938272,58.17283950617284,0)" xlink:href="#cq"/><use transform="matrix(0.04938271604938272,0,0,0.04938271604938272,68.98765432098766,0)" xlink:href="#cl"/><use transform="matrix(0.04938271604938272,0,0,0.04938271604938272,80.8395061728395,0)" xlink:href="#cu"/></g><g id="ax"><use transform="matrix(0.04938271604938272,0,0,0.04938271604938272,0,0)" xlink:href="#br"/><use transform="matrix(0.04938271604938272,0,0,0.04938271604938272,9.876543209876544,0)" xlink:href="#cx"/><use transform="matrix(0.04938271604938272,0,0,0.04938271604938272,15.753086419753087,0)" xlink:href="#bp"/><use transform="matrix(0.04938271604938272,0,0,0.04938271604938272,25.629629629629633,0)" xlink:href="#bk"/><use transform="matrix(0.04938271604938272,0,0,0.04938271604938272,34.51851851851852,0)" xlink:href="#bt"/><use transform="matrix(0.04938271604938272,0,0,0.04938271604938272,44.39506172839506,0)" xlink:href="#bx"/><use transform="matrix(0.04938271604938272,0,0,0.04938271604938272,54.27160493827161,0)" xlink:href="#cE"/><use transform="matrix(0.04938271604938272,0,0,0.04938271604938272,64.14814814814815,0)" xlink:href="#cx"/><use transform="matrix(0.04938271604938272,0,0,0.04938271604938272,70.0246913580247,0)" xlink:href="#bt"/></g><g id="ay"><use transform="matrix(0.04938271604938272,0,0,0.04938271604938272,0,0)" xlink:href="#cJ"/><use transform="matrix(0.04938271604938272,0,0,0.04938271604938272,4.938271604938272,0)" xlink:href="#bm"/><use transform="matrix(0.04938271604938272,0,0,0.04938271604938272,8.839506172839506,0)" xlink:href="#bw"/><use transform="matrix(0.04938271604938272,0,0,0.04938271604938272,18.71604938271605,0)" xlink:href="#bm"/><use transform="matrix(0.04938271604938272,0,0,0.04938271604938272,22.617283950617285,0)" xlink:href="#bs"/><use transform="matrix(0.04938271604938272,0,0,0.04938271604938272,31.506172839506174,0)" xlink:href="#cF"/><use transform="matrix(0.04938271604938272,0,0,0.04938271604938272,41.38271604938272,0)" xlink:href="#bt"/><use transform="matrix(0.04938271604938272,0,0,0.04938271604938272,51.25925925925927,0)" xlink:href="#bx"/></g><g id="aA"><use transform="matrix(0.03703703703703704,0,0,0.03703703703703704,0,0)" xlink:href="#cz"/><use transform="matrix(0.03703703703703704,0,0,0.03703703703703704,9.592592592592593,0)" xlink:href="#cz"/><use transform="matrix(0.03703703703703704,0,0,0.03703703703703704,19.185185185185187,0)" xlink:href="#cz"/><use transform="matrix(0.03703703703703704,0,0,0.03703703703703704,28.037037037037038,0)" xlink:href="#cA"/><use transform="matrix(0.03703703703703704,0,0,0.03703703703703704,31.74074074074074,0)" xlink:href="#bt"/><use transform="matrix(0.03703703703703704,0,0,0.03703703703703704,39.14814814814815,0)" xlink:href="#br"/><use transform="matrix(0.03703703703703704,0,0,0.03703703703703704,46.55555555555555,0)" xlink:href="#bq"/><use transform="matrix(0.03703703703703704,0,0,0.03703703703703704,53.96296296296296,0)" xlink:href="#cv"/><use transform="matrix(0.03703703703703704,0,0,0.03703703703703704,65.03703703703704,0)" xlink:href="#cA"/><use transform="matrix(0.03703703703703704,0,0,0.03703703703703704,68.74074074074075,0)" xlink:href="#bk"/><use transform="matrix(0.03703703703703704,0,0,0.03703703703703704,75.40740740740742,0)" xlink:href="#bp"/><use transform="matrix(0.03703703703703704,0,0,0.03703703703703704,82.81481481481482,0)" xlink:href="#cv"/><use transform="matrix(0.03703703703703704,0,0,0.03703703703703704,93.8888888888889,0)" xlink:href="#bA"/></g><g id="aB"><use transform="matrix(0.04938271604938272,0,0,0.04938271604938272,0,0)" xlink:href="#aP"/><use transform="matrix(0.04938271604938272,0,0,0.04938271604938272,12.790123456790125,0)" xlink:href="#aW"/><use transform="matrix(0.04938271604938272,0,0,0.04938271604938272,23.60493827160494,0)" xlink:href="#aR"/><use transform="matrix(0.04938271604938272,0,0,0.04938271604938272,34.41975308641975,0)" xlink:href="#be"/><use transform="matrix(0.04938271604938272,0,0,0.04938271604938272,44.2962962962963,0)" xlink:href="#aS"/><use transform="matrix(0.04938271604938272,0,0,0.04938271604938272,54.17283950617284,0)" xlink:href="#bc"/><use transform="matrix(0.04938271604938272,0,0,0.04938271604938272,64.98765432098766,0)" xlink:href="#bd"/><use transform="matrix(0.04938271604938272,0,0,0.04938271604938272,75.80246913580247,0)" xlink:href="#aS"/><use transform="matrix(0.04938271604938272,0,0,0.04938271604938272,85.67901234567901,0)" xlink:href="#aR"/><use transform="matrix(0.04938271604938272,0,0,0.04938271604938272,96.49382716049382,0)" xlink:href="#be"/><use transform="matrix(0.04938271604938272,0,0,0.04938271604938272,106.37037037037035,0)" xlink:href="#aS"/><use transform="matrix(0.04938271604938272,0,0,0.04938271604938272,116.2469135802469,0)" xlink:href="#be"/></g><g id="aC"><use transform="matrix(0.05,0,0,0.05,0,0)" xlink:href="#cX"/><use transform="matrix(0.05,0,0,0.05,8.950000000000001,0)" xlink:href="#bU"/><use transform="matrix(0.05,0,0,0.05,18.950000000000003,0)" xlink:href="#cU"/><use transform="matrix(0.05,0,0,0.05,27.950000000000003,0)" xlink:href="#bC"/></g><use transform="matrix(0.05,0,0,0.05,0,0)" xlink:href="#bU" id="aD"/><g id="aE"><use transform="matrix(0.05,0,0,0.05,0,0)" xlink:href="#bR"/><use transform="matrix(0.05,0,0,0.05,3.95,0)" xlink:href="#bJ"/><use transform="matrix(0.05,0,0,0.05,13.949999999999998,0)" xlink:href="#bJ"/><use transform="matrix(0.05,0,0,0.05,23.95,0)" xlink:href="#cU"/><use transform="matrix(0.05,0,0,0.05,32.95,0)" xlink:href="#bL"/></g><g id="aF"><use transform="matrix(0.05,0,0,0.05,0,0)" xlink:href="#bR"/><use transform="matrix(0.05,0,0,0.05,3.95,0)" xlink:href="#bG"/><use transform="matrix(0.05,0,0,0.05,7.9,0)" xlink:href="#bK"/><use transform="matrix(0.05,0,0,0.05,17.9,0)" xlink:href="#cU"/></g><path d="M24 0v-248h195v40H76v63h132v40H76v65h150V0H24" id="da"/><g id="aG"><use transform="matrix(0.04938271604938272,0,0,0.04938271604938272,0,0)" xlink:href="#da"/><use transform="matrix(0.04938271604938272,0,0,0.04938271604938272,11.851851851851853,0)" xlink:href="#aT"/><use transform="matrix(0.04938271604938272,0,0,0.04938271604938272,27.654320987654323,0)" xlink:href="#aU"/><use transform="matrix(0.04938271604938272,0,0,0.04938271604938272,38.46913580246914,0)" xlink:href="#aV"/><use transform="matrix(0.04938271604938272,0,0,0.04938271604938272,43.40740740740741,0)" xlink:href="#aW"/><use transform="matrix(0.04938271604938272,0,0,0.04938271604938272,54.22222222222223,0)" xlink:href="#aX"/><use transform="matrix(0.04938271604938272,0,0,0.04938271604938272,64.09876543209877,0)" xlink:href="#aS"/><use transform="matrix(0.04938271604938272,0,0,0.04938271604938272,73.97530864197532,0)" xlink:href="#aY"/></g><path d="M128 0H69L1-190h53L99-40l48-150h52" id="db"/><g id="aH"><use transform="matrix(0.04938271604938272,0,0,0.04938271604938272,0,0)" xlink:href="#bg"/><use transform="matrix(0.04938271604938272,0,0,0.04938271604938272,4.938271604938272,0)" xlink:href="#aR"/><use transform="matrix(0.04938271604938272,0,0,0.04938271604938272,15.753086419753087,0)" xlink:href="#db"/><use transform="matrix(0.04938271604938272,0,0,0.04938271604938272,25.629629629629633,0)" xlink:href="#bg"/><use transform="matrix(0.04938271604938272,0,0,0.04938271604938272,30.567901234567906,0)" xlink:href="#ba"/><use transform="matrix(0.04938271604938272,0,0,0.04938271604938272,36.44444444444445,0)" xlink:href="#aS"/><use transform="matrix(0.04938271604938272,0,0,0.04938271604938272,46.320987654320994,0)" xlink:href="#be"/></g><g id="aI"><use transform="matrix(0.04938271604938272,0,0,0.04938271604938272,0,0)" xlink:href="#aS"/><use transform="matrix(0.04938271604938272,0,0,0.04938271604938272,9.876543209876544,0)" xlink:href="#aT"/><use transform="matrix(0.04938271604938272,0,0,0.04938271604938272,25.679012345679016,0)" xlink:href="#aU"/><use transform="matrix(0.04938271604938272,0,0,0.04938271604938272,36.49382716049383,0)" xlink:href="#aV"/><use transform="matrix(0.04938271604938272,0,0,0.04938271604938272,41.4320987654321,0)" xlink:href="#aW"/><use transform="matrix(0.04938271604938272,0,0,0.04938271604938272,52.24691358024692,0)" xlink:href="#aX"/><use transform="matrix(0.04938271604938272,0,0,0.04938271604938272,62.12345679012346,0)" xlink:href="#aS"/><use transform="matrix(0.04938271604938272,0,0,0.04938271604938272,72,0)" xlink:href="#aS"/></g><g id="aJ"><use transform="matrix(0.04938271604938272,0,0,0.04938271604938272,0,0)" xlink:href="#ba"/><use transform="matrix(0.04938271604938272,0,0,0.04938271604938272,5.8765432098765435,0)" xlink:href="#aW"/></g><use transform="matrix(0.04938271604938272,0,0,0.04938271604938272,0,0)" xlink:href="#aQ" id="aK"/><path d="M24 0v-54h51V0H24" id="dc"/><g id="aL"><use transform="matrix(0.04938271604938272,0,0,0.04938271604938272,0,0)" xlink:href="#aT"/><use transform="matrix(0.04938271604938272,0,0,0.04938271604938272,15.80246913580247,0)" xlink:href="#aS"/><use transform="matrix(0.04938271604938272,0,0,0.04938271604938272,25.679012345679016,0)" xlink:href="#aS"/><use transform="matrix(0.04938271604938272,0,0,0.04938271604938272,35.55555555555556,0)" xlink:href="#ba"/><use transform="matrix(0.04938271604938272,0,0,0.04938271604938272,41.4320987654321,0)" xlink:href="#bg"/><use transform="matrix(0.04938271604938272,0,0,0.04938271604938272,46.370370370370374,0)" xlink:href="#aR"/><use transform="matrix(0.04938271604938272,0,0,0.04938271604938272,57.18518518518519,0)" xlink:href="#bh"/><use transform="matrix(0.04938271604938272,0,0,0.04938271604938272,68,0)" xlink:href="#dc"/></g><path d="M24 0v-248h52V0H24" id="dd"/><g id="aM"><use transform="matrix(0.04938271604938272,0,0,0.04938271604938272,0,0)" xlink:href="#dd"/><use transform="matrix(0.04938271604938272,0,0,0.04938271604938272,4.938271604938272,0)" xlink:href="#be"/></g><g id="aN"><use transform="matrix(0.04938271604938272,0,0,0.04938271604938272,0,0)" xlink:href="#aQ"/><use transform="matrix(0.04938271604938272,0,0,0.04938271604938272,9.876543209876544,0)" xlink:href="#aZ"/><use transform="matrix(0.04938271604938272,0,0,0.04938271604938272,19.75308641975309,0)" xlink:href="#aZ"/><use transform="matrix(0.04938271604938272,0,0,0.04938271604938272,29.629629629629633,0)" xlink:href="#aS"/><use transform="matrix(0.04938271604938272,0,0,0.04938271604938272,39.50617283950618,0)" xlink:href="#aU"/><use transform="matrix(0.04938271604938272,0,0,0.04938271604938272,50.320987654320994,0)" xlink:href="#ba"/><use transform="matrix(0.04938271604938272,0,0,0.04938271604938272,56.19753086419754,0)" xlink:href="#aS"/><use transform="matrix(0.04938271604938272,0,0,0.04938271604938272,66.07407407407408,0)" xlink:href="#cR"/><use transform="matrix(0.04938271604938272,0,0,0.04938271604938272,76.88888888888889,0)" xlink:href="#bi"/></g></defs></g></svg>