<?xml version="1.0" encoding="UTF-8" standalone="no"?>
<!DOCTYPE svg PUBLIC "-//W3C//DTD SVG 1.1//EN" "http://www.w3.org/Graphics/SVG/1.1/DTD/svg11.dtd">
<!-- Generated by Microsoft Visio, SVG Export MSVisio_output.svg Page-1 -->
<svg xmlns="http://www.w3.org/2000/svg" xmlns:xlink="http://www.w3.org/1999/xlink" xmlns:ev="http://www.w3.org/2001/xml-events"
		xmlns:v="http://schemas.microsoft.com/visio/2003/SVGExtensions/" width="11.6929in" height="8.26772in"
		viewBox="0 0 841.89 595.276" xml:space="preserve" color-interpolation-filters="sRGB" class="st21">
	<v:documentProperties v:langID="1033" v:metric="true" v:viewMarkup="false">
		<v:userDefs>
			<v:ud v:nameU="msvSubprocessMaster" v:prompt="" v:val="VT4(Rectangle)"/>
			<v:ud v:nameU="msvNoAutoConnect" v:val="VT0(1):26"/>
		</v:userDefs>
	</v:documentProperties>

	<style type="text/css">
	<![CDATA[
		.st1 {visibility:visible}
		.st2 {fill:#5b9bd5;fill-opacity:0.22;filter:url(#filter_2);stroke:#5b9bd5;stroke-opacity:0.22}
		.st3 {fill:#ffc000;stroke:#c55a11;stroke-width:1}
		.st4 {fill:#000000;font-family:Calibri;font-size:0.833336em;font-weight:bold}
		.st5 {font-size:1em;font-weight:normal}
		.st6 {font-size:0.799995em;font-weight:normal}
		.st7 {fill:#ffffff;stroke:#c55a11;stroke-width:1}
		.st8 {fill:#000000;font-family:Calibri;font-size:0.833336em}
		.st9 {fill:#5b9bd5;fill-opacity:0.25;filter:url(#filter_2);stroke:#5b9bd5;stroke-opacity:0.25}
		.st10 {fill:#4f87bb;stroke:#c55a11;stroke-width:0.75}
		.st11 {fill:#c5e0b3;stroke:#c55a11;stroke-width:1}
		.st12 {font-size:1em}
		.st13 {fill:#538135;font-family:Calibri;font-size:0.833336em}
		.st14 {fill:#f7cbac;stroke:#c55a11;stroke-width:1}
		.st15 {font-size:0.799995em}
		.st16 {fill:#f4b183;stroke:#c55a11;stroke-width:0.75}
		.st17 {fill:#c55a11;font-family:Calibri;font-size:0.833336em}
		.st18 {fill:none;stroke:none;stroke-width:0.25}
		.st19 {font-size:1em;text-decoration:underline}
		.st20 {fill:none;stroke:#c55a11;stroke-width:1}
		.st21 {fill:none;fill-rule:evenodd;font-size:12px;overflow:visible;stroke-linecap:square;stroke-miterlimit:3}
	]]>
	</style>

	<defs id="Filters">
		<filter id="filter_2">
			<feGaussianBlur stdDeviation="2"/>
		</filter>
	</defs>
	<g v:mID="0" v:index="1" v:groupContext="foregroundPage">
		<v:userDefs>
			<v:ud v:nameU="msvThemeOrder" v:val="VT0(0):26"/>
		</v:userDefs>
		<title>Page-1</title>
		<v:pageProperties v:drawingScale="0.0393701" v:pageScale="0.0393701" v:drawingUnits="24" v:shadowOffsetX="8.50394"
				v:shadowOffsetY="-8.50394"/>
		<v:layer v:name="Container" v:index="0"/>
		<a xlink:href="{&#39;id&#39;:&#39;1&#39;, &#39;type&#39;:&#39;header&#39;, &#39;inputArrows&#39;:[], &#39;outputArrows&#39;:[&#39;a1&#39;, &#39;a3&#39;], &#39;children&#39;:[2]}">
			<g id="shape1-1" v:mID="1" v:groupContext="shape" transform="translate(192.047,-538.583)">
				<title>Rectangle</title>
				<desc>Can employer accept the request without a meeting? (click to ...</desc>
				<v:userDefs>
					<v:ud v:nameU="visVersion" v:val="VT0(15):26"/>
				</v:userDefs>
				<v:textBlock v:margins="rect(4,4,4,4)" v:tabSpace="42.5197"/>
				<v:textRect cx="148.11" cy="581.102" width="296.23" height="28.3465"/>
				<g id="shadow1-2" v:groupContext="shadow" v:shadowOffsetX="0.345598" v:shadowOffsetY="-1.97279" v:shadowType="1"
						transform="matrix(1,0,0,1,0.345598,1.97279)" class="st1">
					<rect x="0" y="566.929" width="296.22" height="28.3465" class="st2"/>
				</g>
				<rect x="0" y="566.929" width="296.22" height="28.3465" class="st3"/>
				<text x="37.75" y="578.1" class="st4" v:langID="1033"><v:paragraph v:horizAlign="1"/><v:tabList/>Can employer accept the request without a meeting<tspan
							class="st5">? <v:lf/></tspan><tspan x="95.86" dy="1.5em" class="st6">(</tspan><tspan class="st6">click to collapse </tspan><tspan
							class="st6">/ </tspan><tspan class="st6">expand body</tspan><tspan class="st6">) </tspan> </text>			</g>
		</a>
		<a xlink:href="{&#39;id&#39;:&#39;c1&#39;, &#39;type&#39;:&#39;connector&#39;, &#39;isVisible&#39;:false, &#39;inputArrows&#39;:[&#39;a1&#39;], &#39;outputArrows&#39;:[&#39;a7&#39;]}">
			<g id="shape11-13" v:mID="11" v:groupContext="shape" transform="translate(240.945,-403.937)">
				<title>Rectangle.11</title>
				<desc>NO</desc>
				<v:userDefs>
					<v:ud v:nameU="visVersion" v:val="VT0(15):26"/>
				</v:userDefs>
				<v:textBlock v:margins="rect(4,4,4,4)" v:tabSpace="42.5197"/>
				<v:textRect cx="18.8976" cy="581.102" width="37.8" height="28.3465"/>
				<g id="shadow11-14" v:groupContext="shadow" v:shadowOffsetX="0.345598" v:shadowOffsetY="-1.97279" v:shadowType="1"
						transform="matrix(1,0,0,1,0.345598,1.97279)" class="st1">
					<rect x="0" y="566.929" width="37.7953" height="28.3465" class="st2"/>
				</g>
				<rect x="0" y="566.929" width="37.7953" height="28.3465" class="st7"/>
				<text x="12.36" y="584.1" class="st8" v:langID="1033"><v:paragraph v:horizAlign="1"/><v:tabList/>NO</text>			</g>
		</a>
		<a xlink:href="{&#39;id&#39;:&#39;c2&#39;, &#39;type&#39;:&#39;connector&#39;, &#39;isVisible&#39;:false, &#39;inputArrows&#39;:[&#39;a3&#39;], &#39;outputArrows&#39;:[&#39;a5&#39;]}">
			<g id="shape12-19" v:mID="12" v:groupContext="shape" transform="translate(405.354,-403.937)">
				<title>Rectangle.12</title>
				<desc>YES</desc>
				<v:userDefs>
					<v:ud v:nameU="visVersion" v:val="VT0(15):26"/>
				</v:userDefs>
				<v:textBlock v:margins="rect(4,4,4,4)" v:tabSpace="42.5197"/>
				<v:textRect cx="18.8976" cy="581.102" width="37.8" height="28.3465"/>
				<g id="shadow12-20" v:groupContext="shadow" v:shadowOffsetX="0.345598" v:shadowOffsetY="-1.97279" v:shadowType="1"
						transform="matrix(1,0,0,1,0.345598,1.97279)" class="st1">
					<rect x="0" y="566.929" width="37.7953" height="28.3465" class="st2"/>
				</g>
				<rect x="0" y="566.929" width="37.7953" height="28.3465" class="st7"/>
				<text x="11.72" y="584.1" class="st8" v:langID="1033"><v:paragraph v:horizAlign="1"/><v:tabList/>YES</text>			</g>
		</a>
		<a xlink:href="{&#39;id&#39;:&#39;a1&#39;}">
			<g id="shape13-25" v:mID="13" v:groupContext="shape" transform="translate(-335.278,161.575) rotate(-90)">
				<title>Modern Arrow</title>
				<v:userDefs>
					<v:ud v:nameU="CtrlAngle" v:prompt="" v:val="VT0(0.78539816339745):32"/>
					<v:ud v:nameU="visVersion" v:prompt="" v:val="VT0(15):26"/>
					<v:ud v:nameU="CtrlAngle" v:prompt="" v:val="VT0(0.34877098504376):32"/>
				</v:userDefs>
				<g id="shadow13-26" v:groupContext="shadow" v:shadowOffsetX="0.345598" v:shadowOffsetY="-1.97279" v:shadowType="1"
						transform="matrix(1,0,0,1,-1.97279,0.345598)" class="st1">
					<path d="M0 595.28 L6.24 593.01 L0 595.28 L37.72 595.28 L0 595.28 L6.24 597.54 L0 595.28 Z" class="st9"/>
				</g>
				<path d="M0 595.28 L6.24 593.01 L0 595.28 L37.72 595.28 L0 595.28 L6.24 597.54 L0 595.28 Z" class="st10"/>
			</g>
		</a>
		<a xlink:href="{&#39;id&#39;:&#39;a3&#39;}">
			<g id="shape15-30" v:mID="15" v:groupContext="shape" transform="translate(-170.881,166.839) rotate(-90.4612)">
				<title>Modern Arrow.15</title>
				<v:userDefs>
					<v:ud v:nameU="CtrlAngle" v:prompt="" v:val="VT0(0.78539816339745):32"/>
					<v:ud v:nameU="visVersion" v:prompt="" v:val="VT0(15):26"/>
					<v:ud v:nameU="CtrlAngle" v:prompt="" v:val="VT0(0.34877098504376):32"/>
				</v:userDefs>
				<g id="shadow15-31" v:groupContext="shadow" v:shadowOffsetX="0.345598" v:shadowOffsetY="-1.97279" v:shadowType="1"
						transform="matrix(1,0,0,1,-1.97551,0.329706)" class="st1">
					<path d="M0 595.28 L6.24 593.01 L6.24 593.01 L0.02 595.27 L38.74 595.27 L38.74 595.28 L0.02 595.28 L6.24 597.54
								 L6.24 597.54 L0 595.28 Z" class="st9"/>
				</g>
				<path d="M0 595.28 L6.24 593.01 L6.24 593.01 L0.02 595.27 L38.74 595.27 L38.74 595.28 L0.02 595.28 L6.24 597.54 L6.24
							 597.54 L0 595.28 Z" class="st10"/>
			</g>
		</a>
		<a xlink:href="{&#39;id&#39;:&#39;4&#39;, &#39;inputArrows&#39;:[&#39;a7&#39;], &#39;outputArrows&#39;:[&#39;a22&#39;,&#39;a9&#39;,&#39;a11&#39;],&#39;children&#39;:[&#39;5&#39;]}">
			<g id="shape16-35" v:mID="16" v:groupContext="shape" transform="translate(161.575,-328.819)">
				<title>Rectangle.16</title>
				<desc>Employer invites employee to a meeting. Is the request accept...</desc>
				<v:userDefs>
					<v:ud v:nameU="visVersion" v:val="VT0(15):26"/>
				</v:userDefs>
				<v:textBlock v:margins="rect(4,4,4,4)" v:tabSpace="42.5197"/>
				<v:textRect cx="96.378" cy="581.102" width="192.76" height="28.3465"/>
				<g id="shadow16-36" v:groupContext="shadow" v:shadowOffsetX="0.345598" v:shadowOffsetY="-1.97279" v:shadowType="1"
						transform="matrix(1,0,0,1,0.345598,1.97279)" class="st1">
					<rect x="0" y="566.929" width="192.756" height="28.3465" class="st2"/>
				</g>
				<rect x="0" y="566.929" width="192.756" height="28.3465" class="st11"/>
				<text x="11.28" y="578.1" class="st4" v:langID="1033"><v:paragraph v:horizAlign="1"/><v:tabList/>Employer invites employee to a meeting. <v:newlineChar/><tspan
							x="45.72" dy="1.2em" class="st12">Is the request accepted</tspan>?</text>			</g>
		</a>
		<a xlink:href="{&#39;id&#39;:&#39;5&#39;,  &#39;parentID&#39;:&#39;4&#39;}">
			<g id="shape17-42" v:mID="17" v:groupContext="shape" transform="translate(161.575,-300.472)">
				<title>Rectangle.17</title>
				<desc>- First condition - Second condition</desc>
				<v:userDefs>
					<v:ud v:nameU="visVersion" v:val="VT0(15):26"/>
				</v:userDefs>
				<v:textBlock v:margins="rect(4,4,4,4)" v:tabSpace="42.5197"/>
				<v:textRect cx="96.378" cy="581.102" width="192.76" height="28.3465"/>
				<g id="shadow17-43" v:groupContext="shadow" v:shadowOffsetX="0.345598" v:shadowOffsetY="-1.97279" v:shadowType="1"
						transform="matrix(1,0,0,1,0.345598,1.97279)" class="st1">
					<rect x="0" y="566.929" width="192.756" height="28.3465" class="st2"/>
				</g>
				<rect x="0" y="566.929" width="192.756" height="28.3465" class="st7"/>
				<text x="10.78" y="578.1" class="st13" v:langID="1033"><v:paragraph/><v:tabList/>- First condition<v:lf/><tspan
							x="4" dy="1.2em" class="st12">   </tspan>- Second condition</text>			</g>
		</a>
		<a xlink:href="{&#39;id&#39;:&#39;a7&#39;}">
			<g id="shape18-49" v:mID="18" v:groupContext="shape" transform="translate(-335.561,235.632) rotate(-89.8379)">
				<title>Modern Arrow.18</title>
				<v:userDefs>
					<v:ud v:nameU="CtrlAngle" v:prompt="" v:val="VT0(0.78539816339745):32"/>
					<v:ud v:nameU="visVersion" v:prompt="" v:val="VT0(15):26"/>
					<v:ud v:nameU="CtrlAngle" v:prompt="" v:val="VT0(0.34877098504376):32"/>
				</v:userDefs>
				<g id="shadow18-50" v:groupContext="shadow" v:shadowOffsetX="0.345598" v:shadowOffsetY="-1.97279" v:shadowType="1"
						transform="matrix(1,0,0,1,-1.97181,0.351179)" class="st1">
					<path d="M0 595.28 L6.24 593.01 L0 595.28 L45.98 595.28 L0 595.28 L6.24 597.54 L0 595.28 Z" class="st9"/>
				</g>
				<path d="M0 595.28 L6.24 593.01 L0 595.28 L45.98 595.28 L0 595.28 L6.24 597.54 L0 595.28 Z" class="st10"/>
			</g>
		</a>
		<a xlink:href="{&#39;id&#39;:&#39;c3&#39;, &#39;type&#39;:&#39;connector&#39;, &#39;isVisible&#39;:false, &#39;inputArrows&#39;:[&#39;a22&#39;], &#39;outputArrows&#39;:[&#39;a24&#39;, &#39;a25&#39;]}">
			<g id="shape19-54" v:mID="19" v:groupContext="shape" transform="translate(431.811,-328.819)">
				<title>Rectangle.19</title>
				<desc>YES</desc>
				<v:userDefs>
					<v:ud v:nameU="visVersion" v:val="VT0(15):26"/>
				</v:userDefs>
				<v:textBlock v:margins="rect(4,4,4,4)" v:tabSpace="42.5197"/>
				<v:textRect cx="18.8976" cy="581.102" width="37.8" height="28.3465"/>
				<g id="shadow19-55" v:groupContext="shadow" v:shadowOffsetX="0.345598" v:shadowOffsetY="-1.97279" v:shadowType="1"
						transform="matrix(1,0,0,1,0.345598,1.97279)" class="st1">
					<rect x="0" y="566.929" width="37.7953" height="28.3465" class="st2"/>
				</g>
				<rect x="0" y="566.929" width="37.7953" height="28.3465" class="st7"/>
				<text x="11.72" y="584.1" class="st8" v:langID="1033"><v:paragraph v:horizAlign="1"/><v:tabList/>YES</text>			</g>
		</a>
		<a xlink:href="{&#39;id&#39;:&#39;a22&#39;}">
			<g id="shape20-60" v:mID="20" v:groupContext="shape" transform="translate(431.811,847.559) rotate(180)">
				<title>Modern Arrow.20</title>
				<v:userDefs>
					<v:ud v:nameU="CtrlAngle" v:prompt="" v:val="VT0(0.78539816339745):32"/>
					<v:ud v:nameU="visVersion" v:prompt="" v:val="VT0(15):26"/>
					<v:ud v:nameU="CtrlAngle" v:prompt="" v:val="VT0(0.34877098504376):32"/>
				</v:userDefs>
				<g id="shadow20-61" v:groupContext="shadow" v:shadowOffsetX="0.345598" v:shadowOffsetY="-1.97279" v:shadowType="1"
						transform="matrix(1,0,0,1,-0.345598,-1.97279)" class="st1">
					<path d="M0 595.28 L6.24 593.01 L0 595.28 L77.48 595.28 L0 595.28 L6.24 597.54 L0 595.28 Z" class="st9"/>
				</g>
				<path d="M0 595.28 L6.24 593.01 L0 595.28 L77.48 595.28 L0 595.28 L6.24 597.54 L0 595.28 Z" class="st10"/>
			</g>
		</a>
		<a
				xlink:href="{&#39;id&#39;:&#39;3&#39;, &#39;type&#39;:&#39;infoBlock&#39;, &#39;inputArrows&#39;:[&#39;a5&#39;,&#39;a24&#39;,&#39;a25&#39;, &#39;a19&#39;,&#39;a20&#39;], &#39;outputArrows&#39;:[] , &#39;href&#39;:&#39;https://www.epam.com&#39;}">
			<g id="shape21-65" v:mID="21" v:groupContext="shape" transform="translate(592.441,-393.307)">
				<title>Rectangle.21</title>
				<desc>REQUEST ACCEPTED employee&#39;s contract varied (click to redirec...</desc>
				<v:userDefs>
					<v:ud v:nameU="visVersion" v:val="VT0(15):26"/>
				</v:userDefs>
				<v:textBlock v:margins="rect(4,4,4,4)" v:tabSpace="42.5197"/>
				<v:textRect cx="65.1969" cy="570.472" width="130.4" height="49.6063"/>
				<g id="shadow21-66" v:groupContext="shadow" v:shadowOffsetX="0.345598" v:shadowOffsetY="-1.97279" v:shadowType="1"
						transform="matrix(1,0,0,1,0.345598,1.97279)" class="st1">
					<rect x="0" y="545.669" width="130.394" height="49.6063" class="st2"/>
				</g>
				<rect x="0" y="545.669" width="130.394" height="49.6063" class="st14"/>
				<text x="23.96" y="555.47" class="st8" v:langID="1033"><v:paragraph v:horizAlign="1"/><v:tabList/>REQUEST ACCEPTED <tspan
							x="10.11" dy="1.2em" class="st12">employee</tspan>&#39;s contract varied<v:lf/><v:lf/><tspan x="5.6"
							dy="3em" class="st15">(</tspan><tspan class="st15">click to redirect to www</tspan><tspan class="st15">.</tspan><tspan
							class="st15">epam</tspan><tspan class="st15">.</tspan><tspan class="st15">com</tspan><tspan
							class="st15">)</tspan></text>			</g>
		</a>
		<a xlink:href="{&#39;id&#39;:&#39;a5&#39;}">
			<g id="shape22-79" v:mID="22" v:groupContext="shape" transform="translate(592.441,772.441) rotate(180)">
				<title>Modern Arrow.22</title>
				<v:userDefs>
					<v:ud v:nameU="CtrlAngle" v:prompt="" v:val="VT0(0.78539816339745):32"/>
					<v:ud v:nameU="visVersion" v:prompt="" v:val="VT0(15):26"/>
					<v:ud v:nameU="CtrlAngle" v:prompt="" v:val="VT0(0.34877098504376):32"/>
				</v:userDefs>
				<g id="shadow22-80" v:groupContext="shadow" v:shadowOffsetX="0.345598" v:shadowOffsetY="-1.97279" v:shadowType="1"
						transform="matrix(1,0,0,1,-0.345598,-1.97279)" class="st1">
					<path d="M0 595.28 L6.24 593.01 L0 595.28 L149.29 595.28 L0 595.28 L6.24 597.54 L0 595.28 Z" class="st9"/>
				</g>
				<path d="M0 595.28 L6.24 593.01 L0 595.28 L149.29 595.28 L0 595.28 L6.24 597.54 L0 595.28 Z" class="st10"/>
			</g>
		</a>
		<a xlink:href="{&#39;id&#39;:&#39;a25&#39;}">
			<g id="shape23-84" v:mID="23" v:groupContext="shape" transform="translate(1216.06,201.969) rotate(90)">
				<title>Modern Arrow.23</title>
				<v:userDefs>
					<v:ud v:nameU="CtrlAngle" v:prompt="" v:val="VT0(0.78539816339745):32"/>
					<v:ud v:nameU="visVersion" v:prompt="" v:val="VT0(15):26"/>
					<v:ud v:nameU="CtrlAngle" v:prompt="" v:val="VT0(0.34877098504376):32"/>
				</v:userDefs>
				<g id="shadow23-85" v:groupContext="shadow" v:shadowOffsetX="0.345598" v:shadowOffsetY="-1.97279" v:shadowType="1"
						transform="matrix(1,0,0,1,1.97279,-0.345598)" class="st1">
					<path d="M0 595.28 L6.24 593.01 L0 595.28 L50.31 595.28 L0 595.28 L6.24 597.54 L0 595.28 Z" class="st9"/>
				</g>
				<path d="M0 595.28 L6.24 593.01 L0 595.28 L50.31 595.28 L0 595.28 L6.24 597.54 L0 595.28 Z" class="st10"/>
			</g>
		</a>
		<a xlink:href="{&#39;id&#39;:&#39;a24&#39;}">
			<g id="shape25-89" v:mID="25" v:groupContext="shape" transform="translate(470.551,-342.992)">
				<title>Rectangle.25</title>
				<v:userDefs>
					<v:ud v:nameU="visVersion" v:val="VT0(15):26"/>
				</v:userDefs>
				<g id="shadow25-90" v:groupContext="shadow" v:shadowOffsetX="0.345598" v:shadowOffsetY="-1.97279" v:shadowType="1"
						transform="matrix(1,0,0,1,0.345598,1.97279)" class="st1">
					<path d="M0 595.28 L150.24 595.28 L0 595.28 Z" class="st2"/>
				</g>
				<path d="M0 595.28 L150.24 595.28 L0 595.28 Z" class="st16"/>
			</g>
		</a>
		<a xlink:href="{&#39;id&#39;:7, &#39;type&#39;:&#39;header&#39;, &#39;inputArrows&#39;:[&#39;a9&#39;], &#39;outputArrows&#39;:[&#39;a27&#39;], &#39;children&#39;:[8]}">
			<g id="shape26-94" v:mID="26" v:groupContext="shape" transform="translate(120.82,-235.276)">
				<title>Rectangle.26</title>
				<desc>NO, the request is rejected (click to collapse / expand body)</desc>
				<v:userDefs>
					<v:ud v:nameU="visVersion" v:val="VT0(15):26"/>
				</v:userDefs>
				<v:textBlock v:margins="rect(4,4,4,4)" v:tabSpace="42.5197"/>
				<v:textRect cx="62.8973" cy="581.102" width="125.8" height="28.3465"/>
				<g id="shadow26-95" v:groupContext="shadow" v:shadowOffsetX="0.345598" v:shadowOffsetY="-1.97279" v:shadowType="1"
						transform="matrix(1,0,0,1,0.345598,1.97279)" class="st1">
					<rect x="0" y="566.929" width="125.795" height="28.3465" class="st2"/>
				</g>
				<rect x="0" y="566.929" width="125.795" height="28.3465" class="st3"/>
				<text x="7.24" y="578.1" class="st4" v:langID="1033"><v:paragraph v:horizAlign="1"/><v:tabList/>NO, the request is rejected<v:lf/><tspan
							x="10.64" dy="1.5em" class="st6">(</tspan><tspan class="st6">click to collapse </tspan><tspan
							class="st6">/ </tspan><tspan class="st6">expand body</tspan><tspan class="st6">) </tspan> </text>			</g>
		</a>
		<a xlink:href="{&#39;id&#39;:8, &#39;parentID&#39;:7, &#39;type&#39;:&#39;body&#39;, &#39;isExpanded&#39;:true}">
			<g id="shape27-105" v:mID="27" v:groupContext="shape" transform="translate(120.82,-164.409)">
				<title>Rectangle.27</title>
				<desc>Reasons: 1. First link 2. Second link 3. Third link 4. Forth ...</desc>
				<v:userDefs>
					<v:ud v:nameU="visVersion" v:val="VT0(15):26"/>
				</v:userDefs>
				<v:textBlock v:margins="rect(4,4,4,4)" v:tabSpace="42.5197"/>
				<v:textRect cx="62.8973" cy="559.843" width="125.8" height="70.8661"/>
				<g id="shadow27-106" v:groupContext="shadow" v:shadowOffsetX="0.345598" v:shadowOffsetY="-1.97279" v:shadowType="1"
						transform="matrix(1,0,0,1,0.345598,1.97279)" class="st1">
					<rect x="0" y="524.409" width="125.795" height="70.8661" class="st2"/>
				</g>
				<rect x="0" y="524.409" width="125.795" height="70.8661" class="st7"/>
				<text x="4" y="538.84" class="st17" v:langID="1033"><v:paragraph/><v:tabList/>Reasons:<v:lf/><tspan x="4"
							dy="1.2em" class="st12">1</tspan>. First link<v:lf/><tspan x="4" dy="1.2em" class="st12">2</tspan>. Second link<v:lf/><tspan
							x="4" dy="1.2em" class="st12">3</tspan>. Third link<v:lf/><tspan x="4" dy="1.2em" class="st12">4</tspan>. Forth link</text>			</g>
		</a>
		<a xlink:href="{&#39;id&#39;:&#39;10&#39;, &#39;type&#39;:&#39;header&#39;, &#39;inputArrows&#39;:[&#39;a27&#39;], &#39;outputArrows&#39;:[], &#39;children&#39;:[11]}">
			<g id="shape28-115" v:mID="28" v:groupContext="shape" transform="translate(120.118,-89.2913)">
				<title>Rectangle.28</title>
				<desc>Consequences (click to collapse / expand body)</desc>
				<v:userDefs>
					<v:ud v:nameU="visVersion" v:val="VT0(15):26"/>
				</v:userDefs>
				<v:textBlock v:margins="rect(4,4,4,4)" v:tabSpace="42.5197"/>
				<v:textRect cx="62.8973" cy="581.102" width="125.8" height="28.3465"/>
				<g id="shadow28-116" v:groupContext="shadow" v:shadowOffsetX="0.345598" v:shadowOffsetY="-1.97279" v:shadowType="1"
						transform="matrix(1,0,0,1,0.345598,1.97279)" class="st1">
					<rect x="0" y="566.929" width="125.795" height="28.3465" class="st2"/>
				</g>
				<rect x="0" y="566.929" width="125.795" height="28.3465" class="st3"/>
				<text x="33.2" y="578.1" class="st4" v:langID="1033"><v:paragraph v:horizAlign="1"/><v:tabList/>Consequences<v:newlineChar/><tspan
							x="10.64" dy="1.5em" class="st6">(</tspan><tspan class="st6">click to collapse </tspan><tspan
							class="st6">/ </tspan><tspan class="st6">expand body</tspan><tspan class="st6">) </tspan> </text>			</g>
		</a>
		<a xlink:href="{&#39;id&#39;:11, &#39;parentID&#39;:10, &#39;type&#39;:&#39;body&#39;, &#39;isExpanded&#39;:true}">
			<g id="shape29-126" v:mID="29" v:groupContext="shape" transform="translate(120.118,-25.5118)">
				<title>Rectangle.29</title>
				<desc>Take a look: 1. First link 2. Second link 3. Third link 4. Fo...</desc>
				<v:userDefs>
					<v:ud v:nameU="visVersion" v:val="VT0(15):26"/>
				</v:userDefs>
				<v:textBlock v:margins="rect(4,4,4,4)" v:tabSpace="42.5197"/>
				<v:textRect cx="62.8973" cy="563.386" width="125.8" height="63.7795"/>
				<g id="shadow29-127" v:groupContext="shadow" v:shadowOffsetX="0.345598" v:shadowOffsetY="-1.97279" v:shadowType="1"
						transform="matrix(1,0,0,1,0.345598,1.97279)" class="st1">
					<rect x="0" y="531.496" width="125.795" height="63.7795" class="st2"/>
				</g>
				<rect x="0" y="531.496" width="125.795" height="63.7795" class="st7"/>
				<text x="4" y="542.39" class="st17" v:langID="1033"><v:paragraph/><v:tabList/>Take a look:<v:lf/><tspan x="4"
							dy="1.2em" class="st12">1</tspan>. First link<v:lf/><tspan x="4" dy="1.2em" class="st12">2</tspan>. Second link<v:lf/><tspan
							x="4" dy="1.2em" class="st12">3</tspan>. Third link<v:lf/><tspan x="4" dy="1.2em" class="st12">4</tspan>. Forth link</text>			</g>
		</a>
		<a xlink:href="{&#39;id&#39;:&#39;a9&#39;}">
			<g id="shape30-136" v:mID="30" v:groupContext="shape" transform="translate(-408.189,330.684) rotate(-90)">
				<title>Modern Arrow.30</title>
				<v:userDefs>
					<v:ud v:nameU="CtrlAngle" v:prompt="" v:val="VT0(0.78539816339745):32"/>
					<v:ud v:nameU="visVersion" v:prompt="" v:val="VT0(15):26"/>
					<v:ud v:nameU="CtrlAngle" v:prompt="" v:val="VT0(0.34877098504376):32"/>
				</v:userDefs>
				<g id="shadow30-137" v:groupContext="shadow" v:shadowOffsetX="0.345598" v:shadowOffsetY="-1.97279" v:shadowType="1"
						transform="matrix(1,0,0,1,-1.97279,0.345598)" class="st1">
					<path d="M0 595.28 L6.24 593.01 L0 595.28 L35.88 595.28 L0 595.28 L6.24 597.54 L0 595.28 Z" class="st9"/>
				</g>
				<path d="M0 595.28 L6.24 593.01 L0 595.28 L35.88 595.28 L0 595.28 L6.24 597.54 L0 595.28 Z" class="st10"/>
			</g>
		</a>
		<a xlink:href="{&#39;id&#39;:&#39;a27&#39;}">
			<g id="shape31-141" v:mID="31" v:groupContext="shape" transform="translate(-411.559,476.693) rotate(-90)">
				<title>Modern Arrow.31</title>
				<v:userDefs>
					<v:ud v:nameU="CtrlAngle" v:prompt="" v:val="VT0(0.78539816339745):32"/>
					<v:ud v:nameU="visVersion" v:prompt="" v:val="VT0(15):26"/>
					<v:ud v:nameU="CtrlAngle" v:prompt="" v:val="VT0(0.34877098504376):32"/>
				</v:userDefs>
				<g id="shadow31-142" v:groupContext="shadow" v:shadowOffsetX="0.345598" v:shadowOffsetY="-1.97279" v:shadowType="1"
						transform="matrix(1,0,0,1,-1.97279,0.345598)" class="st1">
					<path d="M0 595.28 L6.24 593.01 L0 595.28 L45.83 595.28 L0 595.28 L6.24 597.54 L0 595.28 Z" class="st9"/>
				</g>
				<path d="M0 595.28 L6.24 593.01 L0 595.28 L45.83 595.28 L0 595.28 L6.24 597.54 L0 595.28 Z" class="st10"/>
			</g>
		</a>
		<a xlink:href="{&#39;id&#39;:&#39;6&#39;, &#39;inputArrows&#39;:[&#39;a11&#39;], &#39;outputArrows&#39;:[&#39;a13&#39;, &#39;a17&#39;]}">
			<g id="shape39-146" v:mID="39" v:groupContext="shape" transform="translate(269.291,-180.589)">
				<title>Rectangle.39</title>
				<desc>NO, but the parties agree to: - further discussions - a trial...</desc>
				<v:userDefs>
					<v:ud v:nameU="visVersion" v:val="VT0(15):26"/>
				</v:userDefs>
				<v:textBlock v:margins="rect(4,4,4,4)" v:tabSpace="42.5197"/>
				<v:textRect cx="65.1969" cy="552.756" width="130.4" height="85.0394"/>
				<g id="shadow39-147" v:groupContext="shadow" v:shadowOffsetX="0.345598" v:shadowOffsetY="-1.97279" v:shadowType="1"
						transform="matrix(1,0,0,1,0.345598,1.97279)" class="st1">
					<rect x="0" y="510.236" width="130.394" height="85.0394" class="st2"/>
				</g>
				<rect x="0" y="510.236" width="130.394" height="85.0394" class="st7"/>
				<text x="4" y="525.76" class="st8" v:langID="1033"><v:paragraph/><v:tabList/>NO, but the parties agree to:<v:newlineChar/><v:lf/><tspan
							x="4" dy="2.4em" class="st12">-</tspan> further discussions<v:newlineChar/><tspan x="4" dy="1.2em"
							class="st12">-</tspan> a trial period<v:newlineChar/><v:lf/><tspan x="4" dy="2.4em" class="st12">Is the request then accepted</tspan>?  </text>			</g>
		</a>
		<a xlink:href="{&#39;id&#39;:&#39;a11&#39;}">
			<g id="shape40-155" v:mID="40" v:groupContext="shape" transform="translate(-260.34,328.819) rotate(-90)">
				<title>Modern Arrow.40</title>
				<v:userDefs>
					<v:ud v:nameU="CtrlAngle" v:prompt="" v:val="VT0(0.78539816339745):32"/>
					<v:ud v:nameU="visVersion" v:prompt="" v:val="VT0(15):26"/>
					<v:ud v:nameU="CtrlAngle" v:prompt="" v:val="VT0(0.34877098504376):32"/>
				</v:userDefs>
				<g id="shadow40-156" v:groupContext="shadow" v:shadowOffsetX="0.345598" v:shadowOffsetY="-1.97279" v:shadowType="1"
						transform="matrix(1,0,0,1,-1.97279,0.345598)" class="st1">
					<path d="M0 595.28 L6.24 593.01 L0 595.28 L33.49 595.28 L0 595.28 L6.24 597.54 L0 595.28 Z" class="st9"/>
				</g>
				<path d="M0 595.28 L6.24 593.01 L0 595.28 L33.49 595.28 L0 595.28 L6.24 597.54 L0 595.28 Z" class="st10"/>
			</g>
		</a>
		<a xlink:href="{&#39;id&#39;:&#39;c4&#39;, &#39;type&#39;:&#39;connector&#39;, &#39;isVisible&#39;:false, &#39;inputArrows&#39;:[&#39;a17&#39;], &#39;outputArrows&#39;:[&#39;a19&#39;,&#39;a20&#39;]}">
			<g id="shape41-160" v:mID="41" v:groupContext="shape" transform="translate(497.008,-208.701)">
				<title>Rectangle.41</title>
				<desc>YES</desc>
				<v:userDefs>
					<v:ud v:nameU="visVersion" v:val="VT0(15):26"/>
				</v:userDefs>
				<v:textBlock v:margins="rect(4,4,4,4)" v:tabSpace="42.5197"/>
				<v:textRect cx="18.8976" cy="581.102" width="37.8" height="28.3465"/>
				<g id="shadow41-161" v:groupContext="shadow" v:shadowOffsetX="0.345598" v:shadowOffsetY="-1.97279" v:shadowType="1"
						transform="matrix(1,0,0,1,0.345598,1.97279)" class="st1">
					<rect x="0" y="566.929" width="37.7953" height="28.3465" class="st2"/>
				</g>
				<rect x="0" y="566.929" width="37.7953" height="28.3465" class="st7"/>
				<text x="11.72" y="584.1" class="st8" v:langID="1033"><v:paragraph v:horizAlign="1"/><v:tabList/>YES</text>			</g>
		</a>
		<a xlink:href="{&#39;id&#39;:&#39;a17&#39;}">
			<g id="shape42-166" v:mID="42" v:groupContext="shape" transform="translate(496.063,966.118) rotate(180)">
				<title>Modern Arrow.42</title>
				<v:userDefs>
					<v:ud v:nameU="CtrlAngle" v:prompt="" v:val="VT0(0.78539816339745):32"/>
					<v:ud v:nameU="visVersion" v:prompt="" v:val="VT0(15):26"/>
					<v:ud v:nameU="CtrlAngle" v:prompt="" v:val="VT0(0.34877098504376):32"/>
				</v:userDefs>
				<g id="shadow42-167" v:groupContext="shadow" v:shadowOffsetX="0.345598" v:shadowOffsetY="-1.97279" v:shadowType="1"
						transform="matrix(1,0,0,1,-0.345598,-1.97279)" class="st1">
					<path d="M0 595.28 L6.24 593.01 L0 595.28 L96.38 595.28 L0 595.28 L6.24 597.54 L0 595.28 Z" class="st9"/>
				</g>
				<path d="M0 595.28 L6.24 593.01 L0 595.28 L96.38 595.28 L0 595.28 L6.24 597.54 L0 595.28 Z" class="st10"/>
			</g>
		</a>
		<a xlink:href="{&#39;id&#39;:&#39;a20&#39;}">
			<g id="shape43-171" v:mID="43" v:groupContext="shape" transform="translate(1281.26,201.969) rotate(90)">
				<title>Modern Arrow.43</title>
				<v:userDefs>
					<v:ud v:nameU="CtrlAngle" v:prompt="" v:val="VT0(0.78539816339745):32"/>
					<v:ud v:nameU="visVersion" v:prompt="" v:val="VT0(15):26"/>
					<v:ud v:nameU="CtrlAngle" v:prompt="" v:val="VT0(0.34877098504376):32"/>
				</v:userDefs>
				<g id="shadow43-172" v:groupContext="shadow" v:shadowOffsetX="0.345598" v:shadowOffsetY="-1.97279" v:shadowType="1"
						transform="matrix(1,0,0,1,1.97279,-0.345598)" class="st1">
					<path d="M0 595.28 L6.24 593.01 L0 595.28 L170.43 595.28 L0 595.28 L6.24 597.54 L0 595.28 Z" class="st9"/>
				</g>
				<path d="M0 595.28 L6.24 593.01 L0 595.28 L170.43 595.28 L0 595.28 L6.24 597.54 L0 595.28 Z" class="st10"/>
			</g>
		</a>
		<a xlink:href="{&#39;id&#39;:&#39;a19&#39;}">
			<g id="shape44-176" v:mID="44" v:groupContext="shape" transform="translate(535.748,-222.874)">
				<title>Rectangle.44</title>
				<v:userDefs>
					<v:ud v:nameU="visVersion" v:val="VT0(15):26"/>
				</v:userDefs>
				<g id="shadow44-177" v:groupContext="shadow" v:shadowOffsetX="0.345598" v:shadowOffsetY="-1.97279" v:shadowType="1"
						transform="matrix(1,0,0,1,0.345598,1.97279)" class="st1">
					<path d="M0 595.28 L150.24 595.28 L0 595.28 Z" class="st2"/>
				</g>
				<path d="M0 595.28 L150.24 595.28 L0 595.28 Z" class="st16"/>
			</g>
		</a>
		<a xlink:href="{&#39;id&#39;:&#39;c5&#39;, &#39;type&#39;:&#39;connector&#39;, &#39;isVisible&#39;:false, &#39;inputArrows&#39;:[&#39;a13&#39;], &#39;outputArrows&#39;:[&#39;a15&#39;]}">
			<g id="shape45-181" v:mID="45" v:groupContext="shape" transform="translate(315.591,-124.016)">
				<title>Rectangle.45</title>
				<desc>NO</desc>
				<v:userDefs>
					<v:ud v:nameU="visVersion" v:val="VT0(15):26"/>
				</v:userDefs>
				<v:textBlock v:margins="rect(4,4,4,4)" v:tabSpace="42.5197"/>
				<v:textRect cx="18.8976" cy="581.102" width="37.8" height="28.3465"/>
				<g id="shadow45-182" v:groupContext="shadow" v:shadowOffsetX="0.345598" v:shadowOffsetY="-1.97279" v:shadowType="1"
						transform="matrix(1,0,0,1,0.345598,1.97279)" class="st1">
					<rect x="0" y="566.929" width="37.7953" height="28.3465" class="st2"/>
				</g>
				<rect x="0" y="566.929" width="37.7953" height="28.3465" class="st7"/>
				<text x="12.36" y="584.1" class="st8" v:langID="1033"><v:paragraph v:horizAlign="1"/><v:tabList/>NO</text>			</g>
		</a>
		<a xlink:href="{&#39;id&#39;:&#39;a13&#39;}">
			<g id="shape46-187" v:mID="46" v:groupContext="shape" transform="translate(-260.633,441.496) rotate(-90)">
				<title>Modern Arrow.46</title>
				<v:userDefs>
					<v:ud v:nameU="CtrlAngle" v:prompt="" v:val="VT0(0.78539816339745):32"/>
					<v:ud v:nameU="visVersion" v:prompt="" v:val="VT0(15):26"/>
					<v:ud v:nameU="CtrlAngle" v:prompt="" v:val="VT0(0.34877098504376):32"/>
				</v:userDefs>
				<g id="shadow46-188" v:groupContext="shadow" v:shadowOffsetX="0.345598" v:shadowOffsetY="-1.97279" v:shadowType="1"
						transform="matrix(1,0,0,1,-1.97279,0.345598)" class="st1">
					<path d="M0 595.28 L6.24 593.01 L0 595.28 L26.36 595.28 L0 595.28 L6.24 597.54 L0 595.28 Z" class="st9"/>
				</g>
				<path d="M0 595.28 L6.24 593.01 L0 595.28 L26.36 595.28 L0 595.28 L6.24 597.54 L0 595.28 Z" class="st10"/>
			</g>
		</a>
		<a xlink:href="{&#39;id&#39;:&#39;a15&#39;}">
			<g id="shape47-192" v:mID="47" v:groupContext="shape" transform="translate(-260.787,499.487) rotate(-90)">
				<title>Modern Arrow.47</title>
				<v:userDefs>
					<v:ud v:nameU="CtrlAngle" v:prompt="" v:val="VT0(0.78539816339745):32"/>
					<v:ud v:nameU="visVersion" v:prompt="" v:val="VT0(15):26"/>
					<v:ud v:nameU="CtrlAngle" v:prompt="" v:val="VT0(0.34877098504376):32"/>
				</v:userDefs>
				<g id="shadow47-193" v:groupContext="shadow" v:shadowOffsetX="0.345598" v:shadowOffsetY="-1.97279" v:shadowType="1"
						transform="matrix(1,0,0,1,-1.97279,0.345598)" class="st1">
					<path d="M0 595.28 L6.24 593.01 L0 595.28 L28.23 595.28 L0 595.28 L6.24 597.54 L0 595.28 Z" class="st9"/>
				</g>
				<path d="M0 595.28 L6.24 593.01 L0 595.28 L28.23 595.28 L0 595.28 L6.24 597.54 L0 595.28 Z" class="st10"/>
			</g>
		</a>
		<a xlink:href="{&#39;id&#39;:&#39;9&#39;, &#39;type&#39;:&#39;infoBlock&#39;, &#39;inputArrows&#39;:[&#39;a15&#39;], &#39;outputArrows&#39;:[] , &#39;href&#39;:&#39;https://www.epam.com&#39;}">
			<g id="shape51-197" v:mID="51" v:groupContext="shape" transform="translate(269.291,-46.1825)">
				<title>Rectangle.51</title>
				<desc>REQUEST REJECTED procedure finished (click to redirect to www...</desc>
				<v:userDefs>
					<v:ud v:nameU="visVersion" v:val="VT0(15):26"/>
				</v:userDefs>
				<v:textBlock v:margins="rect(4,4,4,4)" v:tabSpace="42.5197"/>
				<v:textRect cx="65.1969" cy="570.472" width="130.4" height="49.6063"/>
				<g id="shadow51-198" v:groupContext="shadow" v:shadowOffsetX="0.345598" v:shadowOffsetY="-1.97279" v:shadowType="1"
						transform="matrix(1,0,0,1,0.345598,1.97279)" class="st1">
					<rect x="0" y="545.669" width="130.394" height="49.6063" class="st2"/>
				</g>
				<rect x="0" y="545.669" width="130.394" height="49.6063" class="st14"/>
				<text x="25.35" y="555.47" class="st8" v:langID="1033"><v:paragraph v:horizAlign="1"/><v:tabList/>REQUEST REJECTED<v:newlineChar/><tspan
							x="26.83" dy="1.2em" class="st12">procedure finished<v:lf/><v:lf/></tspan><tspan x="5.6" dy="3em"
							class="st15">(</tspan><tspan class="st15">click to redirect to www</tspan><tspan class="st15">.</tspan><tspan
							class="st15">epam</tspan><tspan class="st15">.</tspan><tspan class="st15">com</tspan><tspan
							class="st15">) </tspan> </text>			</g>
		</a>
		<a xlink:href="{&#39;id&#39;:100,&#39;type&#39;:&#39;text&#39;, &#39;parentID&#39;:&#39;1&#39;, &#39;href&#39;:&#39;https://www.lucidchart.com&#39;}">
			<g id="shape123-211" v:mID="123" v:groupContext="shape" transform="translate(211.659,-500.802)">
				<title>Sheet.123</title>
				<desc>https://www.lucidchart.com</desc>
				<v:textBlock v:margins="rect(4,4,4,4)" v:tabSpace="42.5197"/>
				<v:textRect cx="62.8973" cy="589.427" width="125.8" height="11.698"/>
				<rect x="0" y="583.578" width="125.795" height="11.698" class="st18"/>
				<text x="4" y="593.03" class="st17" v:langID="1033"><v:paragraph/><v:tabList/><tspan class="st19">https</tspan><tspan
							class="st19">://</tspan><tspan class="st19">www</tspan><tspan class="st19">.</tspan><tspan class="st19">lucidchart</tspan><tspan
							class="st19">.</tspan><tspan class="st19">com</tspan></text>			</g>
		</a>
		<a xlink:href="{&#39;id&#39;:101,&#39;type&#39;:&#39;text&#39;, &#39;parentID&#39;:&#39;1&#39;, &#39;href&#39;:&#39;https://www.google.com&#39;}">
			<g id="shape127-221" v:mID="127" v:groupContext="shape" transform="translate(213.158,-487.261)">
				<title>Sheet.127</title>
				<desc>https://www.google.com</desc>
				<v:textBlock v:margins="rect(4,4,4,4)" v:tabSpace="42.5197"/>
				<v:textRect cx="58.1848" cy="589.427" width="116.37" height="11.698"/>
				<rect x="0" y="583.578" width="116.37" height="11.698" class="st18"/>
				<text x="4" y="593.03" class="st17" v:langID="1033"><v:paragraph/><v:tabList/><tspan class="st19">https</tspan><tspan
							class="st19">://</tspan><tspan class="st19">www</tspan><tspan class="st19">.</tspan><tspan class="st19">google</tspan><tspan
							class="st19">.</tspan><tspan class="st19">com</tspan></text>			</g>
		</a>
		<a xlink:href="{&#39;id&#39;:&#39;2&#39;, &#39;parentID&#39;:&#39;1&#39;, &#39;type&#39;:&#39;body&#39;, &#39;isExpanded&#39;:true, &#39;children&#39;:[100,101]}">
			<g id="shape128-231" v:mID="128" v:groupContext="shape" transform="translate(192.047,-472.252)">
				<title>Sheet.128</title>
				<desc>Description: 1. 2.</desc>
				<v:textBlock v:margins="rect(4,4,4,4)" v:tabSpace="42.5197"/>
				<v:textRect cx="148.11" cy="562.11" width="296.23" height="66.3307"/>
				<rect x="0" y="528.945" width="296.22" height="66.3307" class="st20"/>
				<text x="4" y="551.91" class="st17" v:langID="1033"><v:paragraph/><v:tabList/>Description: <v:lf/><tspan x="4"
							dy="1.2em" class="st12">1</tspan>.<v:newlineChar/><tspan x="4" dy="1.38em" class="st12">2</tspan>.  </text>			</g>
		</a>
	</g>
</svg>
