        <svg xmlns="http://www.w3.org/2000/svg" xmlns:xlink="http://www.w3.org/1999/xlink" xmlns:lucid="lucid" width="1760" height="1360">
              <style type="text/css">
                <![CDATA[
                svg {
                    cursor: default;
                }
                a.connector:hover {
                    fill: red;
                    stroke: yellowgreen;
                    cursor: pointer;
                }
                ]]>
            </style>

            <g transform="translate(0 0)" lucid:page-tab-id="0_0">
                <path d="M0 0h1760v1360H0z" fill="#fff" />
                <a xlink:href="{'id':'1', 'type':'header', 'parent':null, 'inputArrows':[], 'outputArrows':['a1','a2'] , 'href':'https://www.lucidchart.com'}"
                    target="_blank">
                    <path d="M660 180h480v40H660z" stroke="#000" stroke-width="2" fill="#ccc" />
                    <use xlink:href="#a" transform="matrix(1,0,0,1,665,185) translate(200.55 18.6)" />
                    <path class="lucid-link lucid-hotspot lucid-overlay-hotspot" d="M660 180h480v40H660z" fill="none" />
                </a>
                <a xlink:href="{'id':'1.1', 'parentID':'1', 'type':'body', 'isExpanded':true, 'inputArrows':[], 'outputArrows':['a1','a2'], 'href':'https://www.lucidchart.com'}"
                    target="_blank">
                    <path d="M660 220h480v80H660z" stroke="#000" stroke-width="2" fill="#e5e5e5" />
                    <use xlink:href="#b" transform="matrix(1,0,0,1,665,225) translate(209.5 38.6)" />
                    <path class="lucid-link lucid-hotspot lucid-overlay-hotspot" d="M660 220h480v80H660z" fill="none" />
                </a>
                <a xlink:href="{'id':'3', 'type':'header', 'inputArrows':['a4'], 'outputArrows':['a5','a6'], 'href':'https://www.lucidchart.com'}"
                    target="_blank">
                    <path d="M900 512h240v40H900z" stroke="#000" stroke-width="2" fill="#ccc" />
                    <use xlink:href="#c" transform="matrix(1,0,0,1,905,517) translate(80.55 18.6)" />
                    <path class="lucid-link lucid-hotspot lucid-overlay-hotspot" d="M900 512h240v40H900z" fill="none" />
                </a>
                <a xlink:href="{'id':'3.1', 'parentID':'3', 'type':'body', 'isExpanded':true, 'inputArrows':['a4'], 'outputArrows':['a5','a6'], 'href':'https://www.lucidchart.com'}"
                    target="_blank">
                    <path d="M900 552h240v80H900z" stroke="#000" stroke-width="2" fill="#e5e5e5" />
                    <use xlink:href="#d" transform="matrix(1,0,0,1,905,557) translate(89.5 38.6)" />
                    <path class="lucid-link lucid-hotspot lucid-overlay-hotspot" d="M900 552h240v80H900z" fill="none" />
                </a>
                <a xlink:href="{'id':'c1', 'type':'connector', 'isVisible':false, 'inputArrows':['a1'], 'outputArrows':['a3']}" target="_blank">
                    <path d="M730 370h60v60h-60z" stroke="#000" stroke-width="2" fill="#fff" />
                    <use xlink:href="#e" transform="matrix(1,0,0,1,735,375) translate(11.524999999999999 28.6)" />
                    <path class="lucid-link lucid-hotspot lucid-overlay-hotspot" d="M730 370h60v60h-60z" fill="none" />
                </a>
                <a xlink:href="{'id':'2', 'type':'header', 'inputArrows':['a3'], 'outputArrows':[] , 'href':'https://www.lucidchart.com'}"
                    target="_blank">
                    <path d="M640 512h240v40H640z" stroke="#000" stroke-width="2" fill="#ccc" />
                    <use xlink:href="#f" transform="matrix(1,0,0,1,645,517) translate(80.55 18.6)" />
                    <path class="lucid-link lucid-hotspot lucid-overlay-hotspot" d="M640 512h240v40H640z" fill="none" />
                </a>
                <a xlink:href="{'id':'2.1', 'parentID':'2', 'type':'body', 'isExpanded':true, 'inputArrows':['a3'], 'outputArrows':[], 'href':'https://www.lucidchart.com'}"
                    target="_blank">
                    <path d="M640 552h240v80H640z" stroke="#000" stroke-width="2" fill="#e5e5e5" />
                    <use xlink:href="#g" transform="matrix(1,0,0,1,645,557) translate(89.5 38.6)" />
                    <path class="lucid-link lucid-hotspot lucid-overlay-hotspot" d="M640 552h240v80H640z" fill="none" />
                </a>
                <a xlink:href="{'id':'a1', 'subtype':'oneWay'}" target="_blank">
                    <path d="M765 300v60h5l-10 10-10-10h5v-60z" stroke="#000" stroke-width="2" />
                    <path class="lucid-link lucid-hotspot lucid-overlay-hotspot" d="M725 330h60v-5l10 10-10 10v-5h-60z" fill="none" />
                </a>
                <a xlink:href="{ 'id':'a3', 'subtype':'oneWay'}" target="_blank">
                    <path d="M765 430v70h5l-10 10-10-10h5v-70z" stroke="#000" stroke-width="2" />
                    <path class="lucid-link lucid-hotspot lucid-overlay-hotspot" d="M720 465h70v-5l10 10-10 10v-5h-70z" fill="none" />
                </a>
                <a xlink:href="{ 'id':'a4', 'subtype':'oneWay'}" target="_blank">
                    <path d="M1025 430v72h5l-10 10-10-10h5v-72z" stroke="#000" stroke-width="2" />
                    <path class="lucid-link lucid-hotspot lucid-overlay-hotspot" d="M979 466h72v-5l10 10-10 10v-5h-72z" fill="none" />
                </a>
                <a xlink:href="{'id':'c2', 'type':'connector', 'isVisible':false, 'inputArrows':['a2'], 'outputArrows':['a4']}" target="_blank">
                    <path d="M990 370h60v60h-60z" stroke="#000" stroke-width="2" fill="#fff" />
                    <use xlink:href="#h" transform="matrix(1,0,0,1,995,375) translate(7 28.6)" />
                    <path class="lucid-link lucid-hotspot lucid-overlay-hotspot" d="M990 370h60v60h-60z" fill="none" />
                </a>
                <a xlink:href="{'id':'a2', 'subtype':'oneWay'}" target="_blank">
                    <path d="M1025 300v60h5l-10 10-10-10h5v-60z" stroke="#000" stroke-width="2" />
                    <path class="lucid-link lucid-hotspot lucid-overlay-hotspot" d="M985 330h60v-5l10 10-10 10v-5h-60z" fill="none" />
                </a>
                <a xlink:href="{ 'id':'a6', 'subtype':'oneWay'}" target="_blank">
                    <path d="M1140 584.5h199V579l11 11-11 11v-5.5h-199z" stroke="#000" stroke-width="2" />
                    <path class="lucid-link lucid-hotspot lucid-overlay-hotspot" d="M1140 584.5h199V579l11 11-11 11v-5.5h-199z" fill="none" />
                </a>
                <a xlink:href="{'id':'4', 'type':'header', 'inputArrows':['a8'], 'outputArrows':[], 'href':'https://www.lucidchart.com'}"
                    target="_blank">
                    <path d="M1260 702h240v40h-240z" stroke="#000" stroke-width="2" fill="#ccc" />
                    <use xlink:href="#i" transform="matrix(1,0,0,1,1265,707) translate(80.55 18.6)" />
                    <path class="lucid-link lucid-hotspot lucid-overlay-hotspot" d="M1260 702h240v40h-240z" fill="none" />
                </a>
                <a xlink:href="{'id':'4.1', 'parentID':'4', 'type':'body', 'isExpanded':true, 'inputArrows':['a8'], 'outputArrows':[], 'href':'https://www.lucidchart.com'}"
                    target="_blank">
                    <path d="M1260 742h240v80h-240z" stroke="#000" stroke-width="2" fill="#e5e5e5" />
                    <use xlink:href="#j" transform="matrix(1,0,0,1,1265,747) translate(89.5 38.6)" />
                    <path class="lucid-link lucid-hotspot lucid-overlay-hotspot" d="M1260 742h240v80h-240z" fill="none" />
                </a>
                <a xlink:href="{ 'id':'a8', 'subtype':'oneWay'}" target="_blank">
                    <path d="M1385 620v72h5l-10 10-10-10h5v-72z" stroke="#000" stroke-width="2" />
                    <path class="lucid-link lucid-hotspot lucid-overlay-hotspot" d="M1339 656h72v-5l10 10-10 10v-5h-72z" fill="none" />
                </a>
                <a xlink:href="{'id':'c3', 'type':'connector', 'isVisible':false, 'inputArrows':['a6'], 'outputArrows':['a8']}" target="_blank">
                    <path d="M1350 560h60v60h-60z" stroke="#000" stroke-width="2" fill="#fff" />
                    <use xlink:href="#k" transform="matrix(1,0,0,1,1355,565) translate(7 28.6)" />
                    <path class="lucid-link lucid-hotspot lucid-overlay-hotspot" d="M1350 560h60v60h-60z" fill="none" />
                </a>
                <a xlink:href="{'id':'5', 'type':'header', 'inputArrows':['a7'], 'outputArrows':[], 'href':'https://www.lucidchart.com'}"
                    target="_blank">
                    <path d="M900 902h240v40H900z" stroke="#000" stroke-width="2" fill="#ccc" />
                    <use xlink:href="#l" transform="matrix(1,0,0,1,905,907) translate(80.55 18.6)" />
                    <path class="lucid-link lucid-hotspot lucid-overlay-hotspot" d="M900 902h240v40H900z" fill="none" />
                </a>
                <a xlink:href="{'id':'5.1', 'parentID':'5', 'type':'body', 'isExpanded':true, 'inputArrows':['a7'], 'outputArrows':[], 'href':'https://www.lucidchart.com'}"
                    target="_blank">
                    <path d="M900 942h240v80H900z" stroke="#000" stroke-width="2" fill="#e5e5e5" />
                    <use xlink:href="#m" transform="matrix(1,0,0,1,905,947) translate(89.5 38.6)" />
                    <path class="lucid-link lucid-hotspot lucid-overlay-hotspot" d="M900 942h240v80H900z" fill="none" />
                </a>
                <a xlink:href="{ 'id':'a7', 'subtype':'oneWay'}" target="_blank">
                    <path d="M1025 822v70h5l-10 10-10-10h5v-70z" stroke="#000" stroke-width="2" />
                    <path class="lucid-link lucid-hotspot lucid-overlay-hotspot" d="M980 857h70v-5l10 10-10 10v-5h-70z" fill="none" />
                </a>
                <a xlink:href="{'id':'c4', 'type':'connector', 'isVisible':false, 'inputArrows':['a5'], 'outputArrows':['a7']}" target="_blank">
                    <path d="M990 760h60v60h-60z" stroke="#000" stroke-width="2" fill="#fff" />
                    <use xlink:href="#e" transform="matrix(1,0,0,1,995,765) translate(11.524999999999999 28.6)" />
                    <path class="lucid-link lucid-hotspot lucid-overlay-hotspot" d="M990 760h60v60h-60z" fill="none" />
                </a>
                <a xlink:href="{ 'id':'a5', 'subtype':'oneWay'}" target="_blank">
                    <path d="M1024.67 632v116.67h5.33l-10.67 10.66-10.66-10.66h5.33V632z" stroke="#000" stroke-width="2" />
                    <path class="lucid-link lucid-hotspot lucid-overlay-hotspot" d="M955.67 690.33h116.66V685l10.67 10.67-10.67 10.66V701H955.67z"
                        fill="none" />
                </a>
                <defs>
                    <path d="M197 0v-115H63V0H30v-248h33v105h134v-105h34V0h-34" id="n" />
                    <path d="M100-194c63 0 86 42 84 106H49c0 40 14 67 53 68 26 1 43-12 49-29l28 8c-11 28-37 45-77 45C44 4 14-33 15-96c1-61 26-98 85-98zm52 81c6-60-76-77-97-28-3 7-6 17-6 28h103"
                        id="o" />
                    <path d="M141-36C126-15 110 5 73 4 37 3 15-17 15-53c-1-64 63-63 125-63 3-35-9-54-41-54-24 1-41 7-42 31l-33-3c5-37 33-52 76-52 45 0 72 20 72 64v82c-1 20 7 32 28 27v20c-31 9-61-2-59-35zM48-53c0 20 12 33 32 33 41-3 63-29 60-74-43 2-92-5-92 41"
                        id="p" />
                    <path d="M85-194c31 0 48 13 60 33l-1-100h32l1 261h-30c-2-10 0-23-3-31C134-8 116 4 85 4 32 4 16-35 15-94c0-66 23-100 70-100zm9 24c-40 0-46 34-46 75 0 40 6 74 45 74 42 0 51-32 51-76 0-42-9-74-50-73"
                        id="q" />
                    <path d="M114-163C36-179 61-72 57 0H25l-1-190h30c1 12-1 29 2 39 6-27 23-49 58-41v29" id="r" />
                    <path d="M27 0v-27h64v-190l-56 39v-29l58-41h29v221h61V0H27" id="s" />
                    <g id="a">
                        <use transform="matrix(0.05,0,0,0.05,0,0)" xlink:href="#n" />
                        <use transform="matrix(0.05,0,0,0.05,12.950000000000001,0)" xlink:href="#o" />
                        <use transform="matrix(0.05,0,0,0.05,22.950000000000003,0)" xlink:href="#p" />
                        <use transform="matrix(0.05,0,0,0.05,32.95,0)" xlink:href="#q" />
                        <use transform="matrix(0.05,0,0,0.05,42.95,0)" xlink:href="#o" />
                        <use transform="matrix(0.05,0,0,0.05,52.95,0)" xlink:href="#r" />
                        <use transform="matrix(0.05,0,0,0.05,58.900000000000006,0)" xlink:href="#s" />
                    </g>
                    <path d="M160-131c35 5 61 23 61 61C221 17 115-2 30 0v-248c76 3 177-17 177 60 0 33-19 50-47 57zm-97-11c50-1 110 9 110-42 0-47-63-36-110-37v79zm0 115c55-2 124 14 124-45 0-56-70-42-124-44v89"
                        id="t" />
                    <path d="M100-194c62-1 85 37 85 99 1 63-27 99-86 99S16-35 15-95c0-66 28-99 85-99zM99-20c44 1 53-31 53-75 0-43-8-75-51-75s-53 32-53 75 10 74 51 75"
                        id="u" />
                    <path d="M179-190L93 31C79 59 56 82 12 73V49c39 6 53-20 64-50L1-190h34L92-34l54-156h33" id="v" />
                    <g id="b">
                        <use transform="matrix(0.05,0,0,0.05,0,0)" xlink:href="#t" />
                        <use transform="matrix(0.05,0,0,0.05,12,0)" xlink:href="#u" />
                        <use transform="matrix(0.05,0,0,0.05,22,0)" xlink:href="#q" />
                        <use transform="matrix(0.05,0,0,0.05,32,0)" xlink:href="#v" />
                        <use transform="matrix(0.05,0,0,0.05,41,0)" xlink:href="#s" />
                    </g>
                    <path d="M126-127c33 6 58 20 58 59 0 88-139 92-164 29-3-8-5-16-6-25l32-3c6 27 21 44 54 44 32 0 52-15 52-46 0-38-36-46-79-43v-28c39 1 72-4 72-42 0-27-17-43-46-43-28 0-47 15-49 41l-32-3c6-42 35-63 81-64 48-1 79 21 79 65 0 36-21 52-52 59"
                        id="w" />
                    <g id="c">
                        <use transform="matrix(0.05,0,0,0.05,0,0)" xlink:href="#n" />
                        <use transform="matrix(0.05,0,0,0.05,12.950000000000001,0)" xlink:href="#o" />
                        <use transform="matrix(0.05,0,0,0.05,22.950000000000003,0)" xlink:href="#p" />
                        <use transform="matrix(0.05,0,0,0.05,32.95,0)" xlink:href="#q" />
                        <use transform="matrix(0.05,0,0,0.05,42.95,0)" xlink:href="#o" />
                        <use transform="matrix(0.05,0,0,0.05,52.95,0)" xlink:href="#r" />
                        <use transform="matrix(0.05,0,0,0.05,58.900000000000006,0)" xlink:href="#w" />
                    </g>
                    <g id="d">
                        <use transform="matrix(0.05,0,0,0.05,0,0)" xlink:href="#t" />
                        <use transform="matrix(0.05,0,0,0.05,12,0)" xlink:href="#u" />
                        <use transform="matrix(0.05,0,0,0.05,22,0)" xlink:href="#q" />
                        <use transform="matrix(0.05,0,0,0.05,32,0)" xlink:href="#v" />
                        <use transform="matrix(0.05,0,0,0.05,41,0)" xlink:href="#w" />
                    </g>
                    <path d="M190 0L58-211 59 0H30v-248h39L202-35l-2-213h31V0h-41" id="x" />
                    <path d="M140-251c81 0 123 46 123 126C263-46 219 4 140 4 59 4 17-45 17-125s42-126 123-126zm0 227c63 0 89-41 89-101s-29-99-89-99c-61 0-89 39-89 99S79-25 140-24"
                        id="y" />
                    <g id="e">
                        <use transform="matrix(0.05,0,0,0.05,0,0)" xlink:href="#x" />
                        <use transform="matrix(0.05,0,0,0.05,12.950000000000001,0)" xlink:href="#y" />
                    </g>
                    <path d="M101-251c82-7 93 87 43 132L82-64C71-53 59-42 53-27h129V0H18c2-99 128-94 128-182 0-28-16-43-45-43s-46 15-49 41l-32-3c6-41 34-60 81-64"
                        id="z" />
                    <g id="f">
                        <use transform="matrix(0.05,0,0,0.05,0,0)" xlink:href="#n" />
                        <use transform="matrix(0.05,0,0,0.05,12.950000000000001,0)" xlink:href="#o" />
                        <use transform="matrix(0.05,0,0,0.05,22.950000000000003,0)" xlink:href="#p" />
                        <use transform="matrix(0.05,0,0,0.05,32.95,0)" xlink:href="#q" />
                        <use transform="matrix(0.05,0,0,0.05,42.95,0)" xlink:href="#o" />
                        <use transform="matrix(0.05,0,0,0.05,52.95,0)" xlink:href="#r" />
                        <use transform="matrix(0.05,0,0,0.05,58.900000000000006,0)" xlink:href="#z" />
                    </g>
                    <g id="g">
                        <use transform="matrix(0.05,0,0,0.05,0,0)" xlink:href="#t" />
                        <use transform="matrix(0.05,0,0,0.05,12,0)" xlink:href="#u" />
                        <use transform="matrix(0.05,0,0,0.05,22,0)" xlink:href="#q" />
                        <use transform="matrix(0.05,0,0,0.05,32,0)" xlink:href="#v" />
                        <use transform="matrix(0.05,0,0,0.05,41,0)" xlink:href="#z" />
                    </g>
                    <path d="M137-103V0h-34v-103L8-248h37l75 118 75-118h37" id="A" />
                    <path d="M30 0v-248h187v28H63v79h144v27H63v87h162V0H30" id="B" />
                    <path d="M185-189c-5-48-123-54-124 2 14 75 158 14 163 119 3 78-121 87-175 55-17-10-28-26-33-46l33-7c5 56 141 63 141-1 0-78-155-14-162-118-5-82 145-84 179-34 5 7 8 16 11 25"
                        id="C" />
                    <g id="h">
                        <use transform="matrix(0.05,0,0,0.05,0,0)" xlink:href="#A" />
                        <use transform="matrix(0.05,0,0,0.05,12,0)" xlink:href="#B" />
                        <use transform="matrix(0.05,0,0,0.05,24,0)" xlink:href="#C" />
                    </g>
                    <path d="M155-56V0h-30v-56H8v-25l114-167h33v167h35v25h-35zm-30-156c-27 46-58 90-88 131h88v-131" id="D" />
                    <g id="i">
                        <use transform="matrix(0.05,0,0,0.05,0,0)" xlink:href="#n" />
                        <use transform="matrix(0.05,0,0,0.05,12.950000000000001,0)" xlink:href="#o" />
                        <use transform="matrix(0.05,0,0,0.05,22.950000000000003,0)" xlink:href="#p" />
                        <use transform="matrix(0.05,0,0,0.05,32.95,0)" xlink:href="#q" />
                        <use transform="matrix(0.05,0,0,0.05,42.95,0)" xlink:href="#o" />
                        <use transform="matrix(0.05,0,0,0.05,52.95,0)" xlink:href="#r" />
                        <use transform="matrix(0.05,0,0,0.05,58.900000000000006,0)" xlink:href="#D" />
                    </g>
                    <g id="j">
                        <use transform="matrix(0.05,0,0,0.05,0,0)" xlink:href="#t" />
                        <use transform="matrix(0.05,0,0,0.05,12,0)" xlink:href="#u" />
                        <use transform="matrix(0.05,0,0,0.05,22,0)" xlink:href="#q" />
                        <use transform="matrix(0.05,0,0,0.05,32,0)" xlink:href="#v" />
                        <use transform="matrix(0.05,0,0,0.05,41,0)" xlink:href="#D" />
                    </g>
                    <g id="k">
                        <use transform="matrix(0.05,0,0,0.05,0,0)" xlink:href="#A" />
                        <use transform="matrix(0.05,0,0,0.05,12,0)" xlink:href="#B" />
                        <use transform="matrix(0.05,0,0,0.05,24,0)" xlink:href="#C" />
                    </g>
                    <path d="M54-142c48-35 137-8 131 61C196 18 31 33 14-55l32-4c7 23 22 37 52 37 35-1 51-22 54-58 4-55-73-65-99-34H22l8-134h141v27H59"
                        id="E" />
                    <g id="l">
                        <use transform="matrix(0.05,0,0,0.05,0,0)" xlink:href="#n" />
                        <use transform="matrix(0.05,0,0,0.05,12.950000000000001,0)" xlink:href="#o" />
                        <use transform="matrix(0.05,0,0,0.05,22.950000000000003,0)" xlink:href="#p" />
                        <use transform="matrix(0.05,0,0,0.05,32.95,0)" xlink:href="#q" />
                        <use transform="matrix(0.05,0,0,0.05,42.95,0)" xlink:href="#o" />
                        <use transform="matrix(0.05,0,0,0.05,52.95,0)" xlink:href="#r" />
                        <use transform="matrix(0.05,0,0,0.05,58.900000000000006,0)" xlink:href="#E" />
                    </g>
                    <g id="m">
                        <use transform="matrix(0.05,0,0,0.05,0,0)" xlink:href="#t" />
                        <use transform="matrix(0.05,0,0,0.05,12,0)" xlink:href="#u" />
                        <use transform="matrix(0.05,0,0,0.05,22,0)" xlink:href="#q" />
                        <use transform="matrix(0.05,0,0,0.05,32,0)" xlink:href="#v" />
                        <use transform="matrix(0.05,0,0,0.05,41,0)" xlink:href="#E" />
                    </g>
                </defs>
            </g>
        </svg>